<?xml version="1.0" encoding="iso-8859-1"?>
<!-- Generator: Adobe Illustrator 18.0.0, SVG Export Plug-In . SVG Version: 6.00 Build 0)  -->
<!DOCTYPE svg PUBLIC "-//W3C//DTD SVG 1.1//EN" "http://www.w3.org/Graphics/SVG/1.1/DTD/svg11.dtd">
<svg version="1.1" id="Capa_1" xmlns="http://www.w3.org/2000/svg" xmlns:xlink="http://www.w3.org/1999/xlink" x="0px" y="0px"
	 viewBox="0 0 216.695 216.695" style="enable-background:new 0 0 216.695 216.695;" xml:space="preserve">
<g>
	<path style="stroke:#1D1D1B;stroke-width:0;stroke-linecap:round;stroke-linejoin:round;" d="M194.083,115.125
		c0.06,0,0.06-0.093,0-0.093"/>
	<path d="M119.006,96.226c-0.999-6.075-3.111-15.347-9.723-17.234c0.041-0.211-0.046-0.425-0.326-0.464
		C92.31,76.187,89.406,97.05,90.316,109.121c0.786,10.43,10.555,26.19,21.695,18.182c0.185-0.034,0.362-0.144,0.492-0.354
		c0.021-0.035,0.039-0.071,0.06-0.106c0.492-0.387,0.982-0.749,1.478-1.232c0.433-0.422,0.358-1.039,0.047-1.458
		C118.722,115.536,120.633,106.117,119.006,96.226z M92.885,102.748c0.269-9.888,3.147-20.546,13.699-22.937
		c0.046,0.37,0.217,0.721,0.65,0.819c2.551,0.575,4.438,2.304,5.852,4.607c-8.135-2.384-13.346,5.84-14.476,13.138
		c-0.965,6.234-1.571,23.704,4.905,28.365C95.131,125.164,92.699,109.601,92.885,102.748z M112.057,124.293
		c-2.223,1.505-4.182,2.243-5.952,2.492c-0.05-0.106-0.102-0.213-0.228-0.283c-5.076-2.807-5.19-15.564-5.262-20.364
		c-0.112-7.454,1.739-22.002,13.113-18.277c0.266,0.087,0.487,0.063,0.683-0.002c2.294,5.601,2.659,12.982,2.539,17.068
		C116.749,111.714,114.96,118.217,112.057,124.293z"/>
	<path d="M179.188,59.948c-3.725-1.563-7.791-2.654-12.285-3.046c-13.022-1.135-22.094,3.325-28.442,10.822
		c-4.58-12.939-19.255-17.795-30.158-12.78c-0.009-0.008-0.004-0.019-0.013-0.027c-3.387-2.877-1.574-18.712-1.476-22.538
		c0.181-7.045,0.973-14.052,1.114-21.096c0.012-0.614-0.929-0.751-1.077-0.146c0,0-0.001,0.005-0.001,0.007
		c-0.83-1.634-2.383-3.002-3.588-4.347c-1.26-1.405-2.509-2.85-3.907-4.125c0.012-0.393-0.196-0.67-0.492-0.745
		c-0.096-0.058-0.138-0.158-0.263-0.188c-9.425-2.232-23.51-2.88-32.434,1.481c-0.252,0.123-0.3,0.345-0.238,0.547
		c-0.394,0.111-0.751,0.373-0.786,0.9c-1.225,18.213-1.728,36.438-1.887,54.676c-5.326-0.569-10.777-0.416-16.13-0.495
		c-4.823-0.071-9.815-0.634-14.529,0.483c-0.198,0.047-0.32,0.171-0.401,0.319c-0.56-0.819-2.008-0.929-2.236,0.291
		c-1.367,7.308-2.763,14.621-4.165,21.937c-0.114,0.109-0.253,0.2-0.339,0.328c-0.155,0.232-0.05,0.522,0.141,0.702
		c-6.821,35.576-13.835,71.249-19.069,107.038c-0.284-0.031-0.566-0.065-0.849-0.096c-0.629-0.069-0.784,1.025-0.151,1.114
		c0.278,0.039,0.555,0.076,0.832,0.115c-0.241,1.663-0.507,3.324-0.74,4.987c-0.067,0.475,0.234,0.814,0.587,0.95
		c-0.112,0.217-0.204,0.445-0.339,0.661c-0.196,0.312-0.106,0.701,0.124,0.961c2.152,2.433,4.462,5.262,7.097,7.171
		c0.159,0.115,0.335,0.138,0.504,0.114c0.081,0.174,0.234,0.324,0.488,0.402c8.3,2.558,17.294,3.774,25.973,3.188
		c0.29-0.02,0.476-0.166,0.656-0.311c0.179,0.704,1.43,0.831,1.586-0.007c1.698-9.124,3.494-18.701,3.412-28.004
		c-0.001-0.11-0.081-0.174-0.116-0.268c5.065,0.027,11.037,0.451,15.768-1.143c1.064,6.267,2.902,12.731,5.915,17.847
		c-0.09,0.297-0.033,0.616,0.121,0.939c-0.525,0.43-0.447,1.346,0.424,1.38c0.228,0.009,0.464,0.014,0.693,0.023
		c0.189,0.174,0.372,0.332,0.518,0.447c2.082,1.63,4.266,3.736,6.632,4.969c-0.138,0.519,0.108,1.164,0.743,1.08
		c10.166-1.342,20.214-1.703,30.416-2.394c0.999-0.068,1.26-1.013,0.907-1.669c0.286-0.17,0.496-0.45,0.36-0.876
		c-4.743-14.784-9.732-29.483-14.833-44.146c10.062,2.785,21.359,2.057,31.331-2.239c1.616,15.431,5.657,31.227,15.083,42.036
		c9.407,12.842,23.489,22.298,40.275,18.773c23.192-4.87,26.695-33.555,26.313-53.303c-0.018-0.929-0.842-1.213-1.514-1.002
		c-0.949-2.648-1.992-5.26-3.15-7.82c-0.002-0.248,0-0.504-0.003-0.749c-0.008-0.674-0.398-1.096-0.883-1.277
		c-0.012-0.024-0.021-0.05-0.032-0.074c-0.311-0.634-1.101-0.358-1.286,0.189c-0.377,0.217-0.662,0.59-0.662,1.162
		c0.031,25.453-10.479,71.181-47.564,49.345c-0.154-0.09-0.284-0.201-0.435-0.293c4.535,0.057,9.072,0.151,13.606,0.062
		c0.658-0.013,0.659-1.009,0-1.023c-4.846-0.095-9.697,0.021-14.544,0.074c-0.102,0.001-0.164,0.053-0.229,0.1
		c-5.216-3.43-9.242-7.865-12.35-12.937c2.43,0.033,4.859,0.058,7.29-0.032c0.742-0.027,0.743-1.125,0-1.153
		c-2.655-0.098-5.307-0.062-7.961-0.024c-1.461-2.544-2.636-5.273-3.695-8.069c2.645,0.243,5.298,0.199,7.895-0.46
		c0.81-0.206,0.445-1.331-0.336-1.219c-2.672,0.381-5.292,0.622-7.971,0.546c-0.97-2.713-1.739-5.529-2.408-8.383
		c8,0.222,16.275-0.129,24.219-0.99c1.347,6.453,3.865,12.087,11.028,11.501c5.108,1.255,10.274-2.701,12.909-6.822
		c3.994-6.246,3.438-13.963,2.046-20.964c5.587,1.687,13.657,1.676,18.685-0.233c0.666-0.253,0.848-1.373,0-1.542
		c-3.115-0.621-6.259-0.455-9.418-0.587c-3.564-0.149-7.132-1.044-10.678-0.868c-1.438,0.072-1.611,1.656-0.64,2.385
		c0.349,5.653,1.18,11.841-0.852,17.235c-1.852,4.917-5.169,7.215-9.527,8.418c-6.829-9.495-5.45-28.474-5.987-39.724
		c-0.264-5.545-2.732-47.915,12.663-42.267c0.263,0.097,0.501,0.066,0.713-0.02c3.709,7.283,3.133,15.372,3.681,23.248
		c0.013,0.179,0.124,0.258,0.179,0.398c-1.223,0.389-1.305,2.234,0.038,2.694c0.185,0.063,0.38,0.103,0.567,0.163
		c0.816,1.275,1.697,2.508,2.739,3.61c1.271,1.344,2.845,3.049,4.689,3.523h0.001c0.068,0.036,0.096,0.106,0.186,0.121
		c6.984,1.184,14.259,2.088,21.34,2.217c0.825,0.015,1.23-0.776,1.172-1.478c0.132-0.107,0.263-0.223,0.3-0.425
		C214.935,102.455,208.775,67.813,179.188,59.948z M161.991,209.917c30.814,5.839,38.615-26.002,39.514-50.148
		c0.589,1.767,1.199,3.529,1.846,5.262c0.089,0.239,0.236,0.405,0.401,0.54c-1.094,18.87-4.069,44.314-26.219,48.07
		c-10.309,1.748-18.992-1.617-26.285-7.377C154.466,207.884,158.002,209.161,161.991,209.917z M99.089,4.924
		c0.772,1.06,1.584,2.095,2.388,3.123c1.272,1.626,2.442,3.622,4.172,4.774c0.328,0.219,0.618,0.168,0.871,0.033
		c-1.977,9.034-2.307,18.459-2.185,27.672c0.053,4.052-1.444,12.342,1.976,15.507c-2.969,1.793-5.58,4.355-7.461,7.831
		C98.317,44.624,96.213,23.879,99.089,4.924z M44.683,178.96c-0.923,0.092-1.179,1.156-0.701,1.672
		c-0.067,0.098-0.169,0.155-0.192,0.299c-1.395,8.772-1.882,17.724-2.984,26.554c-0.187-0.174-0.417-0.32-0.753-0.333
		c-8.638-0.33-17.005-0.973-25.557-2.333c-0.08-0.013-0.13,0.036-0.203,0.042c-0.021-0.07,0.001-0.143-0.046-0.209
		c-1.488-2.078-3.542-3.955-5.528-5.714c7.285,1.485,15.984,2.713,23.039,1.217c0.092-0.02,0.133-0.101,0.21-0.142
		c0.85,0.068,1.698,0.155,2.549,0.31c1.185,0.217,2.329,0.582,3.537,0.591c0.941,0.007,1.364-1.064,0.932-1.764
		c0.228-0.094,0.416-0.254,0.46-0.553c1.136-7.826,2.255-15.698,3.02-23.572c0.604,0.056,1.239,0.052,1.805,0.074
		c4.963,0.192,9.99,0.364,14.954,0.184c0.876-0.032,1.316-0.692,1.326-1.358c0.153,1.423,0.354,2.897,0.582,4.385
		C56.004,177.243,49.819,178.448,44.683,178.96z M65.396,184.989c-1.306-4.384-2.306-8.84-3.449-13.267
		c-0.225-0.87-1.69-0.721-1.607,0.217c0.054,0.611,0.13,1.254,0.197,1.885c-0.036-0.643-0.465-1.262-1.315-1.291
		c-3.079-0.106-6.178-0.005-9.257,0.057c-2.117,0.042-5.585-0.281-7.54,0.601c-0.087-0.143-0.199-0.254-0.339-0.335
		c0.047-0.563-0.465-1.121-1.124-0.76c-0.144,0.078-0.287,0.157-0.43,0.236c-0.25,0.137-0.413,0.429-0.409,0.713
		c0.002,0.134,0.039,0.233,0.057,0.35c-0.084,0.149-0.146,0.318-0.172,0.513c-1.063,8.105-1.713,16.301-2.353,24.45
		c0,0.002,0.002,0.003,0.002,0.003c-1.848-0.666-4.08-0.685-6.093-0.398c-3.733-0.668-7.624-0.392-11.413-0.567
		c-4.156-0.192-8.299-0.574-12.449-0.841c0.08-0.304-0.12-0.561-0.372-0.664c0.338-1.509,0.648-3.028,0.98-4.539
		c4.188,0.585,8.373,1.156,12.583,1.597c0.691,0.072,0.861-1.122,0.166-1.224c-4.157-0.605-8.323-1.083-12.495-1.546
		c0.45-2.06,0.868-4.13,1.307-6.193c0.031,0.198,0.157,0.374,0.436,0.367c3.966-0.106,7.794,0.189,11.72,0.752
		c0.888,0.127,1.301-1.2,0.381-1.381c-3.973-0.781-8.088-0.848-12.101-0.338c-0.166,0.021-0.278,0.111-0.356,0.222
		c0.55-2.589,1.027-5.199,1.56-7.793c3.555,0.179,7.136,0.208,10.692,0.122c0.897-0.022,0.899-1.373,0-1.395
		c-3.478-0.084-6.981-0.054-10.46,0.115c0.543-2.655,1.029-5.326,1.557-7.985c5.363-0.063,10.694,0.414,15.976,1.348
		c0.953,0.168,1.375-1.27,0.405-1.47c-5.355-1.106-10.664-1.467-16.116-1.241c0.516-2.608,0.989-5.228,1.494-7.839
		c13.912-1.053,27.494-0.351,41.259,2.204c1.162,0.216,1.673-1.535,0.494-1.793c-13.71-3.003-27.615-3.533-41.507-1.703
		c0.527-2.74,1.021-5.488,1.537-8.23c3.552-0.375,7.101-0.752,10.645-1.199c0.78-0.098,0.803-1.332,0-1.246
		c-3.481,0.374-6.952,0.817-10.424,1.261c0.663-3.532,1.267-7.075,1.916-10.609c4.382-0.403,8.761-0.782,13.127-1.337
		c0.844-0.107,0.886-1.43,0-1.357c-4.309,0.353-8.596,0.877-12.89,1.382c0.616-3.366,1.201-6.735,1.809-10.103
		c3.036,0.046,6.074,0.125,9.11,0.092c0.634-0.007,0.635-0.978,0-0.985c-2.988-0.033-5.978,0.044-8.966,0.09
		c0.654-3.628,1.281-7.249,1.929-10.878c5.648,0.086,11.308,0.261,16.953,0.032c0.837-0.034,0.838-1.268,0-1.301
		c-5.572-0.226-11.158-0.059-16.733,0.029c0.522-2.926,1.035-5.846,1.556-8.773c2.185,0.029,4.404,0.174,6.583,0.009
		c0.681-0.051,0.682-1.008,0-1.06c-2.118-0.16-4.273-0.03-6.398,0.004c1.177-6.621,2.346-13.229,3.519-19.847
		c2.042-0.011,4.6-0.044,5.023-0.088c1.744-0.183,3.488-0.378,5.231-0.574c3.569-0.4,7.122-0.874,10.668-1.448
		c0.852-0.138,0.661-1.589-0.205-1.516c-5.039,0.425-10.04,1.081-15.048,1.777c-1.284,0.178-3.487,0.124-5.413,0.405
		c1.187-6.698,2.378-13.406,3.562-20.087c0.004-0.022-0.004-0.04-0.001-0.062c0.065,0.05,0.112,0.118,0.2,0.143
		c4.652,1.295,9.723,0.921,14.529,1.036c5.345,0.127,10.761,0.49,16.096,0.128c-0.048,6.963-0.054,13.929-0.018,20.896
		c0.082,15.684-3.222,36.298,3.717,51.019c0.571,1.212,1.234,2.367,1.976,3.467c3.087,6.772,7.922,11.928,13.717,15.542
		c-0.001,0.102-0.064,0.171-0.031,0.288c2.958,10.586,6.955,20.994,10.746,31.345c-0.292,0.258-0.449,0.642-0.278,1.089
		c1.507,3.939,3.462,7.836,5.663,11.443c-9.508-0.611-19.551,0.22-29.07,1.168c-0.004-0.038,0.023-0.064,0.014-0.103
		C68.748,193.586,66.692,189.339,65.396,184.989z M106.345,201.77c-9.536-0.736-19.586,0.585-28.905,2.765
		c-0.039-0.152-0.059-0.305-0.189-0.449c-1.037-1.149-2.455-1.98-3.707-2.885c-0.519-0.376-1.041-0.747-1.564-1.116
		c9.241,0.313,18.858,0.398,27.89-0.825c1.118-0.151,0.985-1.464,0.249-2.011c0.035-0.109,0.072-0.22,0.03-0.358
		c-1.052-3.463-2.464-6.916-4.056-10.211c-3.482-10.804-6.751-21.841-10.917-32.406c1.824,0.951,3.746,1.709,5.706,2.376
		C95.874,171.748,100.984,186.801,106.345,201.77z M76.088,144.536c13.668,10.012,35.958,10.566,47.646-1.264
		c0.111,3.122,0.337,6.33,0.626,9.558C106.399,159.158,88.428,157.246,76.088,144.536z M123.61,132.255
		c-0.029,2.383-0.023,4.872,0.023,7.419c-0.005,0.006-0.011,0.007-0.016,0.013c-12.122,14.474-36.52,10.495-49.765-0.784
		c-2.833-2.412-4.672-6.164-5.897-10.574c3.478,0.23,6.953,0.45,10.44,0.57c0.808,0.028,0.792-1.188,0-1.246
		c-3.599-0.264-7.197-0.427-10.8-0.574c-1.252-5.15-1.713-11.116-1.805-17.04c7.995,0.788,16.038,0.866,23.993-0.399
		c0.654-0.104,0.497-1.177-0.156-1.15c-7.981,0.323-15.889,0.551-23.855,0.174c-0.018-2.587,0.024-5.153,0.094-7.62
		c2.188,0.288,4.382,0.596,6.584,0.678c0.774,0.029,0.723-1.077,0-1.171c-2.168-0.284-4.365-0.346-6.554-0.426
		c0.127-4.114,0.31-7.944,0.375-11.102c3.375,0.178,6.762,0.228,10.141,0.189c0.742-0.009,0.743-1.144,0-1.153
		c-3.375-0.039-6.76,0.01-10.132,0.188c0.008-0.536,0.02-1.095,0.018-1.587c-0.007-1.918,0.024-3.836,0.036-5.753
		c2.704-0.47,5.345-0.561,8.091-0.432c0.442,0.021,0.557-0.715,0.106-0.785c-2.753-0.427-5.506-0.198-8.193,0.481
		c0.021-3.197,0.033-6.395,0.059-9.592c0.037,0.011,0.054,0.044,0.097,0.047c2.631,0.155,5.185-0.2,7.606-1.254
		c0.687-0.299,0.189-1.507-0.516-1.223c-2.313,0.932-4.581,1.513-7.09,1.511c-0.041,0-0.056,0.03-0.092,0.038
		c0.03-3.421,0.021-6.843,0.063-10.264c7.534,0.12,15.417-0.56,22.658-2.651c0.813-0.235,0.456-1.359-0.341-1.237
		c-7.455,1.141-14.78,2.311-22.305,2.885c0.032-2.556,0.055-5.112,0.092-7.667c2.871-0.255,5.59,0.033,8.432,0.468
		c0.61,0.093,0.891-0.784,0.262-0.95c-2.829-0.748-5.798-0.72-8.683-0.343c0.051-3.486,0.091-6.971,0.146-10.456
		c2.346,0.072,4.692,0.135,7.04,0.122c0.706-0.004,0.707-1.093,0-1.097c-2.343-0.013-4.686,0.05-7.027,0.122
		c0.054-3.398,0.1-6.796,0.152-10.194c8.585,0.29,17.138-0.409,25.603-1.825c1.076-0.18,0.613-1.797-0.45-1.632
		c-8.356,1.304-16.694,1.96-25.135,2.263c0.036-2.318,0.073-4.636,0.106-6.954c2.25,0.043,4.494,0.067,6.751-0.012
		c0.502-0.018,0.503-0.763,0-0.781c-2.252-0.079-4.493-0.056-6.739-0.013c0.036-2.583,0.08-5.167,0.109-7.75
		c3.752,0.083,7.505,0.177,11.258,0.099c0.694-0.014,0.695-1.064,0-1.078c-3.749-0.078-7.498,0.016-11.247,0.099
		c0.023-2.06,0.059-4.119,0.076-6.179c0.002-0.194-0.107-0.298-0.177-0.435c5.014,0.437,10.248-0.608,15.284-0.713
		c5.059-0.105,10.061,0.387,15.101,0.463c-3.098,8.807-1.832,18.723-1.743,27.922c0.112,11.584-0.522,23.452,0.796,34.972
		c0.174,1.527,2.483,1.619,2.454,0c0-0.019-0.001-0.038-0.002-0.057c0.074-0.051,0.165-0.068,0.219-0.149
		c10.03-14.901,30.646-14.308,37.726,3.043C124.966,85.911,123.839,113.722,123.61,132.255z M166.124,177.545
		c-0.369,0.076-0.727,0.161-1.108,0.226c-17.202-5.64-9.108-69.068-7.956-81.967c0.011-0.123-0.023-0.216-0.037-0.323
		c0.979-3.547,3.122-6.588,7.055-7.434c4.061-0.873,7.091,1.159,9.307,4.149C151.185,85.247,156.107,163.957,166.124,177.545z
		 M181.292,118.727c0.052-0.125,0.159-0.194,0.179-0.346c1.328-10.146-0.182-28.295-11.325-33.072
		c-7.564-3.243-14.258,2.357-15.19,9.315c-0.418,0.218-0.757,0.599-0.816,1.182c-2.273,22.388-4.051,46.894-0.546,69.268
		c0.09,0.572,0.197,1.141,0.297,1.712c-8.012-0.135-16.3,0.273-24.253,1.226c-0.501-2.328-0.88-4.693-1.222-7.06
		c3.383-0.264,6.766-0.548,10.133-0.966c0.799-0.099,0.835-1.354,0-1.283c-3.449,0.294-6.885,0.727-10.318,1.18
		c-0.509-3.753-0.824-7.513-1.038-11.219c4.228,0.101,8.45,0.184,12.68,0.18c0.851-0.001,0.848-1.294,0-1.32
		c-4.257-0.131-8.509-0.174-12.767-0.199c-0.158-3.154-0.221-6.227-0.249-9.227c5.736,0.237,11.395,0.079,17.108-0.745
		c0.525-0.076,0.406-0.973-0.126-0.931c-5.652,0.447-11.324,0.707-16.994,0.66c-0.003-0.467-0.016-0.956-0.016-1.418
		c-0.004-3.483-0.003-7.205,0.06-11.04c0.092,0.137,0.225,0.248,0.425,0.273c3.325,0.421,6.51,0.052,9.559-1.361
		c0.617-0.286,0.18-1.33-0.466-1.104c-2.954,1.032-5.962,1.574-9.093,1.312c-0.184-0.015-0.318,0.044-0.41,0.138
		c0.076-4.076,0.243-8.287,0.57-12.516c4.216,0.98,8.847,1.018,12.787-0.879c0.745-0.358,0.208-1.469-0.545-1.291
		c-4.168,0.984-7.938,1.51-12.112,0.618c0.467-5.353,1.237-10.705,2.449-15.837c4.312,0.312,8.505-0.034,12.64-1.393
		c0.807-0.265,0.481-1.458-0.351-1.273c-3.949,0.879-7.926,1.372-11.961,1.281c0.872-3.424,1.982-6.717,3.335-9.844
		c6.896,0.294,13.87,0.446,20.721-0.394c0.796-0.097,0.85-1.278,0-1.283c-6.682-0.036-13.348,0.27-20.03,0.199
		c1.304-2.777,2.839-5.39,4.628-7.799c6.307-0.449,12.649-0.947,18.882-1.99c0.837-0.14,0.642-1.52-0.2-1.479
		c-5.813,0.279-11.622,1.036-17.393,1.857c2.694-3.251,5.947-6.04,9.847-8.244c0.027,0.008,0.029,0.035,0.058,0.042
		c4.568,1.027,9.11,1.16,13.655-0.028c1.028-0.269,0.576-1.723-0.43-1.56c-3.604,0.584-7.212,0.736-10.813,0.296
		c16.49-7.439,35.779,3.069,44.603,17.311c7.802,12.593,7.887,26.871,6.316,40.937C196.111,120.42,188.699,119.048,181.292,118.727z
		 M208.296,128.543c-6.655-0.947-13.558-1.287-20.274-1.29c-1.055-1.318-2.604-2.193-3.837-3.354
		c-0.482-0.454-0.919-0.948-1.365-1.432c6.734,1.421,14.133,0.953,20.79,0.236c0.37,0.317,1.111,0.256,1.249-0.324
		c4.439-18.645,0.042-40.957-13.311-54.182C208.896,80.938,210.837,106.898,208.296,128.543z"/>
	<path d="M50.327,84.207c-0.114-0.384-0.345-0.63-0.621-0.761c-0.424-0.888-2.011-0.736-2.15,0.504
		c-1.489,13.213-3.316,26.298-6.007,39.322c-1.261,6.103-6.139,16.379-4.413,22.386c0.186,0.648,0.849,0.824,1.412,0.575
		l0.456-0.203c0.354-0.157,0.358-0.675,0.119-0.92c-1.746-1.78,6.47-28.385,7.2-32.727c1.218-7.236,2.14-14.524,2.879-21.827
		c1.355,6.018,2.578,12.031,3.744,18.05c-4.29,12.286-7.927,24.831-10.162,37.659c-1.141,0.039-2.289,0.077-3.389,0.125
		c-1.291,0.056-1.214,1.792,0,1.952c6.31,0.833,13.478,1.759,19.823,1.163c0.376-0.035,0.659-0.249,0.878-0.52
		c0.601,0.22,1.331,0.001,1.289-0.84C60.317,126.615,56.466,104.859,50.327,84.207z M44.122,146.216
		c3.189-11.129,6.248-22.277,9.629-33.346c2.104,11.286,3.931,22.613,5.443,34.106C54.42,146.141,49.156,146.078,44.122,146.216z"/>
	<path d="M36.085,94.009c-2.859-0.098-5.736-0.089-8.594,0.046c-0.681,0.032-0.683,1.028,0,1.06
		c2.858,0.135,5.735,0.144,8.594,0.047C36.826,95.136,36.828,94.034,36.085,94.009z"/>
	<path d="M39.885,70.191c-3.075,0.471-6.136,1.029-9.201,1.561c-0.53,0.092-0.413,1.022,0.129,0.95
		c3.137-0.419,6.28-0.811,9.409-1.291C41.023,71.287,40.683,70.068,39.885,70.191z"/>
	<path d="M77.072,119.744c-1.988-0.078-3.961-0.044-5.95,0c-0.801,0.018-0.803,1.228,0,1.246c1.989,0.044,3.962,0.078,5.95,0
		C77.873,120.959,77.874,119.776,77.072,119.744z"/>
	<path d="M158.384,194.521c-4.864,0-9.698-0.065-14.535-0.621c-0.495-0.057-0.616,0.799-0.119,0.877
		c4.859,0.758,9.738,1.187,14.653,0.841C159.081,195.569,159.098,194.521,158.384,194.521z"/>
	<path d="M142.518,101.839c-4.194,0.066-8.375,0.365-12.56,0.624c-0.913,0.056-0.926,1.472,0,1.432
		c4.191-0.182,8.381-0.324,12.56-0.698C143.373,103.12,143.406,101.826,142.518,101.839z"/>
</g>
<g>
</g>
<g>
</g>
<g>
</g>
<g>
</g>
<g>
</g>
<g>
</g>
<g>
</g>
<g>
</g>
<g>
</g>
<g>
</g>
<g>
</g>
<g>
</g>
<g>
</g>
<g>
</g>
<g>
</g>
</svg>
