<?xml version="1.0" encoding="iso-8859-1"?>
<!-- Generator: Adobe Illustrator 18.0.0, SVG Export Plug-In . SVG Version: 6.00 Build 0)  -->
<!DOCTYPE svg PUBLIC "-//W3C//DTD SVG 1.1//EN" "http://www.w3.org/Graphics/SVG/1.1/DTD/svg11.dtd">
<svg version="1.1" id="Capa_1" xmlns="http://www.w3.org/2000/svg" xmlns:xlink="http://www.w3.org/1999/xlink" x="0px" y="0px"
	 viewBox="0 0 246.595 246.595" style="enable-background:new 0 0 246.595 246.595;" xml:space="preserve">
<g>
	<path d="M159.365,3.145c-0.081-0.275-0.265-0.483-0.466-0.665c0.593-0.916,0.072-2.633-1.248-2.47
		c-11.392,1.41-22.83,2.243-34.311,2.372c-5.42,0.061-15.712-2.546-20.088,1.098c-0.345,0.287-0.249,0.947,0.147,1.141
		c0.052,0.025,0.104,0.051,0.156,0.076c-3.008,1.738-5.403,4.969-7.71,7.526c-2.394,2.654-4.719,6.647-8.278,7.743
		c-0.728,0.224-0.78,0.919-0.505,1.403c-0.024,0.222,0.012,0.447,0.215,0.619c0.185,0.156,0.369,0.312,0.554,0.468
		c0.165,0.139,0.352,0.154,0.526,0.121c-0.007,0.053-0.052,0.074-0.05,0.134c2.34,57.528,4.933,115.03,7.086,172.567
		c0.001,0.037,0.019,0.062,0.023,0.097c-0.351,0.726-0.067,1.731,1.014,1.788c4.698,0.245,9.421,0.004,14.122-0.109
		c4.129-0.099,8.408,0.192,12.426-0.816c0.102-0.025,0.149-0.116,0.233-0.166c0.47,0.096,0.978-0.148,1.087-0.728
		c0.03-0.015,0.052,0.005,0.082-0.014c2.077-1.266,4.105-2.607,6.142-3.935c1.821-1.187,4.078-2.215,5.512-3.861
		c0.652-0.747,0.045-2.217-1.058-1.818c-0.055,0.02-0.104,0.054-0.158,0.075c1.475-60.246,15.347-121.048,24.373-180.581
		c0.019-0.021,0.056-0.062,0.072-0.08C159.86,4.48,159.761,3.705,159.365,3.145z M122.528,193.859
		c-3.926-0.625-8.011-0.145-11.975,0.012c-3.989,0.158-7.988,0.277-11.966,0.619c-0.051-0.152-0.163-0.273-0.329-0.306
		c0.013-2.136-0.007-4.281-0.002-6.42c4.052,0.206,8.102,0.415,12.159,0.529c0.758,0.022,0.747-1.124,0-1.171
		c-4.051-0.254-8.105-0.413-12.16-0.576c0.004-2.648-0.028-5.305-0.037-7.955c4.946,0.23,9.89,0.457,14.841,0.587
		c0.937,0.025,0.928-1.403,0-1.45c-4.948-0.251-9.896-0.404-14.847-0.555c-0.013-3.087-0.062-6.182-0.092-9.274
		c4.537,0.256,9.073,0.54,13.614,0.69c0.855,0.028,0.841-1.264,0-1.32c-4.538-0.302-9.083-0.47-13.627-0.666
		c-0.057-5.517-0.149-11.039-0.262-16.564c5.957-0.322,11.914-0.643,17.862-1.117c1.025-0.082,1.05-1.667,0-1.618
		c-5.97,0.283-11.929,0.721-17.889,1.157c-0.064-3.026-0.2-6.056-0.282-9.084c5.398-0.309,10.801-0.576,16.186-1.079
		c0.997-0.093,1.026-1.645,0-1.58c-5.419,0.339-10.82,0.916-16.223,1.45c-0.102-3.714-0.277-7.429-0.404-11.144
		c6.203,0.083,12.403,0.163,18.608,0.097c1.149-0.012,1.15-1.773,0-1.785c-6.223-0.066-12.443,0.014-18.665,0.098
		c-0.26-7.394-0.591-14.788-0.949-22.179c5.874,0.16,11.768,0.264,17.631,0.021c1.088-0.045,1.09-1.646,0-1.692
		c-5.886-0.245-11.805-0.139-17.701,0.022c-0.202-4.086-0.448-8.168-0.681-12.251c5.55,0.162,11.063,0.021,16.582-0.805
		c0.766-0.115,0.586-1.391-0.183-1.351c-5.496,0.281-10.986,0.56-16.486,0.606c-0.255-4.381-0.612-8.745-0.903-13.12
		c7.803-0.273,15.559-0.015,23.337,0.805c0.908,0.096,1.128-1.461,0.218-1.607c-7.868-1.265-15.741-1.547-23.673-0.913
		c-0.246-3.639-0.548-7.265-0.815-10.899c6.58,0.203,13.399,0.201,19.866-1.142c0.917-0.191,0.721-1.7-0.222-1.644
		c-6.595,0.394-13.121,1.304-19.737,1.531c-0.32-4.321-0.678-8.633-1.029-12.947c10.066,0.127,19.987,1.011,30.021,1.808
		c0.887,0.07,1.076-1.359,0.21-1.552c-9.921-2.212-20.246-2.65-30.386-2.202c-0.635-7.663-1.316-15.314-2.129-22.931
		c4.765,2.206,22.275,1.137,24.865,1.084c9.179-0.189,18.255-1.093,27.317-2.521C130.66,77.996,122.303,136.139,122.528,193.859z
		 M141.946,99.666c-4.388,28.603-10.975,57.958-8.856,87.024c-1.299,0.821-2.507,1.86-3.721,2.732
		c-1.625,1.167-3.243,2.342-4.846,3.539c4.171-57.587,9.387-114.398,20.934-171.103c0.161-0.788-0.221-1.363-0.754-1.7
		c1.7-0.949,7.291-6.975,11.071-11.147C151.114,39.221,146.582,69.452,141.946,99.666z M156.645,3.317
		c-3.496,3.641-6.897,7.375-10.222,11.173c-0.98,1.119-2.794,2.619-3.542,4.256c-0.376-0.391-0.9-0.647-1.563-0.553
		c-16.612,2.35-32.792,2.167-49.405,2.33c1.329-1.005,2.467-2.412,3.604-3.651c3.111-3.393,7.479-6.597,9.864-10.513
		c0.447-0.734-0.015-1.484-0.678-1.751c0.04-0.042,0.08-0.084,0.12-0.126c0.161-0.17,0.149-0.349,0.082-0.507
		c2.665,0.482,11.353,1.571,12.359,1.602c4.721,0.148,9.453,0.106,14.173-0.058c8.459-0.294,16.847-1.164,25.224-2.312
		C156.657,3.244,156.651,3.281,156.645,3.317z"/>
	<path d="M133.453,212.635c0.027-0.191,0.044-0.379,0.071-0.571c0.112-0.795-0.894-1.079-1.201-0.331
		c-0.056,0.136-0.102,0.283-0.156,0.419c-0.054,0.021-0.107-0.009-0.16,0.023c-3.34,2.024-6.407,4.828-9.435,7.333
		c-0.255-0.261-0.591-0.451-1.05-0.478c-7.839-0.463-15.668-0.21-23.44,0.907c1.2-0.867,2.346-1.843,3.487-2.704
		c2.005-1.512,4.182-2.922,5.891-4.774c0.157-0.17,0.194-0.358,0.227-0.543c7.672,1.191,15.829,0.512,23.551,0.352
		c1.459-0.031,1.462-2.238,0-2.269c-7.874-0.163-16.203-0.89-24.001,0.399c-0.214,0.035-0.346,0.176-0.434,0.348
		c-0.194-0.02-0.393-0.031-0.604,0.078c-2.276,1.176-4.247,2.94-6.27,4.497c-1.822,1.403-4.081,2.709-5.505,4.52
		c0.014,0.008,0.028,0.016,0.041,0.024c-0.41,0.43-0.314,1.168,0.09,1.526c-0.021,0.113-0.086,0.193-0.086,0.32
		c-0.008,5.159-0.017,10.318-0.023,15.477c-0.003,2.223-0.995,6.595,0.905,8.426c1.93,1.861,6.344,0.524,8.584,0.369
		c5.325-0.367,10.657-0.673,15.973-1.154c0.68-0.061,1.286-0.446,1.526-1.057c2.229-0.38,4.874-1.297,6.838-2.792
		c0.647,0.709,1.979,0.481,2.093-0.759c0.814-8.856,1.737-17.541,2.935-26.342c0.005-0.004,0.011-0.008,0.015-0.012
		C133.731,213.511,133.683,213.024,133.453,212.635z M118.33,241.642c-3.47,0.176-6.937,0.406-10.404,0.632
		c-1.851,0.121-8.611,1.562-9.991,0.686c-0.324-0.206-0.358-1.86-0.3-3.74c4.488-0.178,8.961-0.372,13.44-0.727
		c0.67-0.053,0.691-1.071,0-1.06c-4.474,0.072-8.927,0.305-13.393,0.554c0.09-1.897,0.228-3.729,0.249-4.461
		c0.075,0.249,0.242,0.469,0.584,0.475c2.867,0.055,5.727,0.089,8.594,0.019c0.897-0.022,0.899-1.372,0-1.394
		c-2.867-0.07-5.727-0.037-8.594,0.019c-0.33,0.006-0.495,0.215-0.576,0.453c0.002-3.659,0.003-7.318,0.005-10.977
		c7.307-0.323,14.573-0.381,21.876-0.04C118.965,228.577,118.453,235.088,118.33,241.642z M127.836,237.828
		c-0.812,0.78-1.589,1.594-2.563,2.231c-1.147,0.75-2.41,1.245-3.71,1.64c0-6.942,0.45-13.832,1.449-20.711
		c0.007-0.051-0.007-0.095-0.003-0.145c2.57-1.644,5.333-3.243,7.856-5.058C128.621,222.738,127.536,230.634,127.836,237.828z"/>
	<path d="M113.72,226.852c-4.849-0.07-9.694-0.022-14.544,0.018c-0.646,0.006-0.647,0.999,0,1.004
		c4.849,0.04,9.695,0.089,14.544,0.018C114.389,227.884,114.391,226.862,113.72,226.852z"/>
	<path d="M111.078,156.807c-3.087,0.203-6.171,0.426-9.254,0.686c-0.66,0.055-0.674,1.083,0,1.041
		c3.088-0.191,6.17-0.419,9.254-0.667C111.751,157.813,111.762,156.762,111.078,156.807z"/>
	<path d="M113.72,114.339c-5.069-0.211-10.134-0.041-15.205,0.056c-0.766,0.015-0.767,1.175,0,1.19
		c5.071,0.096,10.135,0.267,15.205,0.056C114.556,115.605,114.558,114.373,113.72,114.339z"/>
	<path d="M117.688,34.213c-8.518-1.045-16.869-0.639-25.331,0.7c-0.87,0.138-0.674,1.671,0.21,1.552
		c8.342-1.12,16.725-1.204,25.121-0.727C118.688,35.794,118.636,34.329,117.688,34.213z"/>
</g>
<g>
</g>
<g>
</g>
<g>
</g>
<g>
</g>
<g>
</g>
<g>
</g>
<g>
</g>
<g>
</g>
<g>
</g>
<g>
</g>
<g>
</g>
<g>
</g>
<g>
</g>
<g>
</g>
<g>
</g>
</svg>
