<?xml version="1.0" encoding="iso-8859-1"?>
<!-- Generator: Adobe Illustrator 18.0.0, SVG Export Plug-In . SVG Version: 6.00 Build 0)  -->
<!DOCTYPE svg PUBLIC "-//W3C//DTD SVG 1.1//EN" "http://www.w3.org/Graphics/SVG/1.1/DTD/svg11.dtd">
<svg version="1.1" id="Capa_1" xmlns="http://www.w3.org/2000/svg" xmlns:xlink="http://www.w3.org/1999/xlink" x="0px" y="0px"
	 viewBox="0 0 263.412 263.412" style="enable-background:new 0 0 263.412 263.412;" xml:space="preserve">
<g>
	<path d="M223.376,253.427c-0.815-2.663-3.126-6.352-6.241-6.361c-0.052,0-0.079,0.034-0.127,0.038
		c-9.062-7.436-20.823-15.413-32.442-17.909c-15.94-3.424-37.838,15.039-50.116,1.421c-4.062-11.396-13.259-20.006-25.073-23.308
		c-16.371-4.576-31.702,5.331-47.336,8.791c-8.127,0.172-3.806-12.556-1.602-16.912c2.112-4.174,4.94-7.384,8.597-10.18
		c8.672-2.02,15.944-7.092,23.353-11.99c8.579-5.671,17.846-11.322,25.005-18.775c0.063-0.065,0.089-0.141,0.135-0.212
		c0.401,0.168,0.909,0.135,1.245-0.312c30.546-40.601,57.46-84.473,85.477-126.851c0.075-0.113,0.088-0.221,0.134-0.332
		c0.202-0.194,0.37-0.444,0.43-0.819c4.192-26.239-38.707-39.799-54.497-20.89c-0.461,0.001-0.927,0.168-1.267,0.62
		c-28.495,37.967-56.308,77.14-81.003,117.702c-0.172,0.283-0.202,0.55-0.174,0.8c-0.459,0.165-0.844,0.55-0.892,1.164
		c-1.354,17.609-2.491,35.316-2.386,52.993c-8.615,0.659-17.412,9.328-21.938,19.2c-0.441,0.067-0.564,0.542-0.37,0.858
		c-0.808,1.878-1.478,3.786-1.94,5.69c-0.302,0.206-0.363,0.606-0.188,0.941c-0.537,2.549-0.757,5.069-0.527,7.444
		c-0.041,0.139-0.032,0.273,0.033,0.402c0.663,5.634,3.739,10.422,10.245,12.848c0.231,0.086,0.439,0.071,0.631,0.02
		c8.501,5.822,17.681,3.982,28.223,0.51c16.161-5.323,26.502-3.728,37.381,9.868c3.354,4.192,6.404,7.68,10.732,10.532
		c5.778,5.835,13.414,8.199,21.934,5.408c4.14-1.356,6.968-4.557,10.855-6.176c13.992-5.827,24.153-3.708,36.653,2.859
		c8.273,4.347,13.782,9.482,23.258,10.886c0.323,0.048,0.597-0.02,0.84-0.133c0.488,0.181,1.089,0.108,1.48-0.427
		C223.887,260.127,224.357,256.633,223.376,253.427z M201.635,28.653c-0.156,0.118-0.309,0.244-0.435,0.432
		c-28.105,41.847-57.998,83.259-83.555,126.723c0.064-0.228,0.137-0.457,0.092-0.718c-0.584-3.409-4.719-5.875-7.797-6.709
		c-2.506-0.679-5.093-0.493-7.445,0.405c0.001-0.196-0.069-0.385-0.083-0.58c32.349-43.952,61.922-90.144,93.709-134.556
		C200.018,17.619,202.427,22.649,201.635,28.653z M89.01,137.585c4.917,0.487,9.841,0.287,14.701-0.581
		c0.622-0.111,0.487-1.18-0.151-1.114c-4.855,0.504-9.672,0.711-14.55,0.617c-0.166-0.003-0.284,0.058-0.37,0.144
		c1.947-2.485,3.849-5.009,5.776-7.512c3.487,0.031,6.972,0.066,10.459-0.008c0.849-0.018,0.851-1.302,0-1.32
		c-3.145-0.067-6.288-0.033-9.432-0.007c1.493-1.946,2.952-3.921,4.433-5.878c5.212-0.32,10.403-0.644,15.592-1.255
		c0.728-0.086,0.772-1.194,0-1.171c-4.84,0.139-9.649,0.529-14.469,0.937c2.002-2.655,3.917-5.383,5.898-8.057
		c0.07,0.149,0.201,0.272,0.421,0.321c3.421,0.77,6.816,1.032,10.294,0.519c0.756-0.112,0.578-1.374-0.18-1.333
		c-3.273,0.176-6.528,0.125-9.758-0.476c-0.031-0.006-0.049,0.018-0.079,0.016c3.31-4.475,6.517-9.033,9.772-13.552
		c0.14,0.25,0.355,0.451,0.731,0.455c3.975,0.044,7.929,0.113,11.9-0.084c1.088-0.054,1.09-1.638,0-1.692
		c-3.876-0.192-7.738-0.13-11.616-0.086c2.607-3.629,5.147-7.308,7.721-10.961c3.699,0.24,7.469-0.051,11.164-0.254
		c0.664-0.037,0.675-1.042,0-1.041c-3.476,0.006-7.019-0.027-10.487,0.335c1.814-2.579,3.587-5.187,5.386-7.777
		c4.339,0.124,8.71,0.191,13.037-0.022c0.646-0.032,0.647-0.972,0-1.004c-4.082-0.201-8.203-0.146-12.3-0.038
		c1.692-2.439,3.352-4.9,5.031-7.348c4.404,0.062,8.82,0.188,13.218-0.028c0.873-0.043,0.874-1.314,0-1.357
		c-4.073-0.2-8.161-0.107-12.241-0.042c1.826-2.667,3.582-5.375,5.394-8.051c3.454,0.588,6.919,0.527,10.344-0.451
		c0.881-0.252,0.51-1.543-0.376-1.362c-3.029,0.617-6.023,0.788-9.032,0.416c1.892-2.8,3.732-5.63,5.611-8.438
		c5.274-0.284,10.541-0.464,15.822-0.501c-23.099,31.43-45.569,63.699-64.836,97.18c-0.758-1.943-2.107-3.702-3.778-4.896
		c-3.369-2.409-7.424-2.477-11.321-1.713c0.63-0.798,1.239-1.615,1.867-2.415C88.382,136.994,88.52,137.537,89.01,137.585z
		 M176.271,30.045c-4.25-0.19-8.492-0.2-12.744-0.201c1.75-2.677,3.436-5.385,5.172-8.069c5.855,0.238,11.717,0.521,17.577,0.468
		c-6.189,8.249-12.387,16.484-18.541,24.844c-5.347-0.147-10.697,0.045-16.014,0.645c3.621-5.42,7.196-10.865,10.766-16.312
		c4.602,0,9.187,0.001,13.784-0.204C177.025,31.183,177.026,30.079,176.271,30.045z M179.572,4.468
		c4.991,1.345,10.323,3.824,14.519,7.309c-0.003,0.004-0.007,0.005-0.007,0.005c-2.178,2.891-4.354,5.851-6.535,8.756
		c-5.855-0.483-11.739-0.565-17.615-0.688c1.522-2.361,3.024-4.731,4.546-7.092c5.004,0.077,10.013,0.21,15.013,0.042
		c0.873-0.03,0.874-1.328,0-1.357c-4.726-0.16-9.459-0.049-14.189,0.029c1.365-2.124,2.751-4.236,4.086-6.375
		C179.526,4.878,179.568,4.669,179.572,4.468z M70.326,128.482c26.983-39.305,53.464-78.806,81.324-117.514
		c0.158-0.22,0.232-0.434,0.26-0.641c7.221-5.643,15.05-8.302,24.557-6.578c0.219,0.04,0.448,0.099,0.67,0.143
		c-29.7,45.976-61.268,90.444-92.649,135.257c-0.364-2.774-2.132-5.935-3.479-7.323c-2.706-2.786-7.463-4.343-11.239-2.946
		C69.97,128.789,70.175,128.703,70.326,128.482z M69.482,131.09c3.486-0.042,6.72,0.169,9.28,2.983
		c1.276,1.403,2.069,3.318,2.27,5.196c0.146,1.364-0.335,2.508,0.539,3.67c0.346,0.461,0.965,0.752,1.514,0.397
		c0.44-0.285,0.768-0.642,1.011-1.048c6.166-1.165,16.244-0.611,14.871,8.169c-0.043,0.275-0.024,0.521,0.03,0.746
		c-0.195,0.962,0.69,2.018,1.792,1.366c2.55-1.507,5.412-1.701,8.236-0.869c2.901,0.855,4.057,2.748,6.042,4.674
		c-8.906,6.106-17.761,13.763-27.202,20.11c-0.818-3.735-4.362-7.24-7.223-9.394c-3.776-2.843-8.107-4.302-12.782-4.535
		C68.267,152.064,68.74,141.576,69.482,131.09z M67.061,182.512c0.101,0.026,0.184,0.089,0.304,0.07
		c2.444-0.394,4.843-0.813,7.249-1.4c0.704-0.172,0.576-1.385-0.176-1.296c-2.475,0.292-4.879,0.73-7.321,1.215
		c0.052-1.249,0.099-2.498,0.151-3.747c3.72,0.043,7.445,0.145,11.164,0.036c0.849-0.025,0.851-1.295,0-1.32
		c-3.702-0.108-7.41-0.008-11.114,0.036c0.055-1.343,0.107-2.686,0.162-4.029c3.655,0.057,7.3,0.14,10.951-0.077
		c0.717-0.042,0.719-1.073,0-1.116c-3.634-0.216-7.263-0.135-10.9-0.078c0.081-1.991,0.164-3.981,0.24-5.971
		c4.163,0.629,8.176,2.335,11.421,5.034c2.803,2.331,4.139,5.484,6.418,8.101c-5.942,3.811-12.129,7.021-18.725,8.904
		C66.951,185.419,66.999,183.966,67.061,182.512z M220.237,260.775c-13.507-4.131-23.96-15.408-37.958-17.955
		c-17.794-3.238-36.541,15.448-51.749,7.206c-0.063-0.337-0.249-0.665-0.6-0.918c-10.743-7.738-16.294-23.978-30.516-26.37
		c-17.754-2.986-31.238,14.51-48.442,4.631c-0.032-0.024-0.059-0.051-0.089-0.076c4.244,0.917,8.545,1.713,12.821,2.372
		c0.763,0.118,1.113-1.02,0.326-1.183c-5.054-1.047-10.209-1.969-15.327-2.638c-0.069-0.049-0.138-0.091-0.207-0.141
		c-1.391-1.069-2.433-2.311-3.322-3.619c4.03,0.529,8.065,1.074,12.115,1.356c0.588,0.041,0.733-0.94,0.141-1.041
		c-4.349-0.74-8.753-1.18-13.142-1.661c-0.633-1.194-1.048-2.466-1.344-3.77c2.795,0.047,5.591,0.089,8.384,0.012
		c0.753-0.021,0.755-1.15,0-1.171c-2.874-0.079-5.75-0.034-8.626,0.015c-0.319-2.092-0.187-4.274,0.221-6.452
		c3.017,0.229,6.04,0.475,9.061,0.483c0.886,0.002,0.829-1.234,0-1.339c-2.894-0.367-5.818-0.515-8.736-0.671
		c0.482-1.851,1.23-3.668,2.144-5.427c2.86,0.009,5.718,0.024,8.579-0.029c0.694-0.013,0.695-1.066,0-1.078
		c-2.673-0.049-5.344-0.033-8.016-0.027c0.009-0.016,0.015-0.034,0.025-0.05c0.944-1.6,2.087-3.346,3.377-5.098
		c2.198-0.159,4.396-0.307,6.587-0.557c0.591-0.067,0.623-0.974,0-0.948c-1.915,0.079-3.822,0.249-5.731,0.404
		c1.302-1.684,2.745-3.337,4.277-4.863c1.808-0.175,3.617-0.338,5.419-0.569c0.532-0.068,0.557-0.904,0-0.855
		c-1.488,0.131-2.971,0.317-4.455,0.493c2.816-2.62,5.922-4.724,9.142-5.586c0.013,1.216-0.023,2.434,0.002,3.65
		c0.012,0.544,0.345,0.817,0.729,0.955c0.016,0.24,0.12,0.467,0.259,0.671c-6.371,3.982-10.386,12.509-11.526,19.475
		c-1.105,6.755,4.847,13.724,11.643,9.537c0.093-0.057,0.102-0.154,0.171-0.225c9.305-1.622,17.699-5.873,27.117-7.57
		c17.956-3.235,32.42,6.921,39.637,22.769c0.298,0.654,0.981,0.751,1.54,0.517c4.173,5.051,10.234,6.48,17.58,5.418
		c13.134-1.901,22.916-8.791,36.798-4.762c9.872,2.865,18.826,9.844,27.462,15.143c0.04,0.025,0.081-0.001,0.121,0.018
		c0.024,0.036,0.024,0.081,0.051,0.115c1.544,1.909,3.495,2.622,4.395,5.185C221.315,256.656,221.171,258.818,220.237,260.775z"/>
	<path d="M125.368,105.287c-3.961-0.19-7.935-0.059-11.899-0.019c-0.933,0.009-0.935,1.441,0,1.45
		c3.965,0.04,7.938,0.172,11.899-0.019C126.277,106.657,126.279,105.331,125.368,105.287z"/>
	<path d="M170.322,38.435c-3.722-0.33-7.505-0.106-11.238-0.065c-1.1,0.012-1.102,1.699,0,1.711
		c3.733,0.041,7.517,0.265,11.238-0.065C171.337,39.925,171.339,38.525,170.322,38.435z"/>
</g>
<g>
</g>
<g>
</g>
<g>
</g>
<g>
</g>
<g>
</g>
<g>
</g>
<g>
</g>
<g>
</g>
<g>
</g>
<g>
</g>
<g>
</g>
<g>
</g>
<g>
</g>
<g>
</g>
<g>
</g>
</svg>
