<?xml version="1.0" encoding="iso-8859-1"?>
<!-- Generator: Adobe Illustrator 18.0.0, SVG Export Plug-In . SVG Version: 6.00 Build 0)  -->
<!DOCTYPE svg PUBLIC "-//W3C//DTD SVG 1.1//EN" "http://www.w3.org/Graphics/SVG/1.1/DTD/svg11.dtd">
<svg version="1.1" id="Capa_1" xmlns="http://www.w3.org/2000/svg" xmlns:xlink="http://www.w3.org/1999/xlink" x="0px" y="0px"
	 viewBox="0 0 210.154 210.154" style="enable-background:new 0 0 210.154 210.154;" xml:space="preserve">
<g>
	<path d="M59.971,20.99c-10.794,6.177-19.966,15.539-24.283,26.695c-0.142,0.143-0.22,0.334-0.224,0.54
		c-2.581,6.963-3.269,14.61-1.257,22.62c0.606,2.413,1.636,4.909,2.854,7.45c0.025,0.052,0.034,0.104,0.073,0.147
		c1.998,4.144,4.484,8.403,6.463,12.62c-0.255,0.01-0.511,0.017-0.766,0.026c-0.62,0.023-0.625,0.981,0,0.967
		c0.4-0.009,0.799-0.022,1.199-0.031c3.928,8.728,5.328,17.212-4.837,24c-8.518,5.688-22.402-4.219-32.89-0.896
		c-0.282-0.014-0.561,0.071-0.803,0.28c-0.186,0.072-0.379,0.115-0.563,0.196c-0.748,0.334-0.896,1.104-0.699,1.792
		c-20.814,35.791,40.431,68.679,66.908,76.872c43.187,13.364,97.046,10.477,124.024-30.884
		C249.375,80.276,145.461-27.934,59.971,20.99z M154.481,191.195c-27.136,10.715-58.067,7.583-85.294-1.305
		c-4.053-1.323-8.904-3.227-14.102-5.617c5.845,0.207,11.671,0.655,17.503,1.29c0.574,0.062,0.56-0.822,0-0.893
		c-6.417-0.811-12.857-1.183-19.313-1.242c-4.183-1.986-8.556-4.279-12.901-6.84c7.872,0.254,15.75,0.505,23.621,0.471
		c0.734-0.003,0.726-1.099,0-1.134c-8.565-0.417-17.153-0.502-25.732-0.607c-4.298-2.628-8.526-5.518-12.483-8.625
		c4.557,0.069,9.101,0.386,13.615,1.069c0.67,0.102,0.978-0.898,0.287-1.04c-5.187-1.063-10.353-1.482-15.623-1.436
		c-4.032-3.305-7.72-6.846-10.841-10.576c5.686,0.04,11.374,0.092,17.06,0.023c0.885-0.011,0.887-1.365,0-1.376
		c-6.038-0.073-12.077-0.01-18.116,0.031c-2.818-3.566-5.079-7.302-6.614-11.167c7.801,0.111,15.606,0.101,23.407-0.001
		c0.945-0.012,0.947-1.456,0-1.469c-7.986-0.105-15.976-0.118-23.962,0.003c-1.342-3.893-1.881-7.916-1.48-12.03
		c15.315,0.013,30.633-0.398,45.937-0.943c0.977-0.035,0.985-1.544,0-1.525c-15.284,0.293-30.574,0.723-45.84,1.571
		c0.405-3.074,1.329-6.195,2.921-9.356c11.367-4.255,26.439,6.126,38.058,0.414c0.114,0.066,0.241,0.12,0.399,0.095
		c10.263-1.6,20.524-2.168,30.902-1.953c0.839,0.017,0.836-1.272,0-1.301c-9.763-0.348-19.434,0.34-29.074,1.804
		c0.996-0.711,1.971-1.516,2.899-2.539c6.309-6.955,2.468-15.462-1.642-23.074c8.172-0.189,16.344-0.369,24.514-0.642
		c0.775-0.026,0.78-1.23,0-1.208c-8.354,0.227-16.704,0.547-25.054,0.86c-1.143-2.092-2.274-4.111-3.179-5.996
		c-0.994-2.067-1.823-4.121-2.573-6.166c5.64,0.185,11.28,0.381,16.921,0.514c0.767,0.018,0.764-1.16,0-1.19
		c-5.788-0.225-11.578-0.386-17.368-0.558c-1.626-4.733-2.562-9.386-2.827-13.906c4.969,0.019,9.939,0.055,14.907-0.007
		c1.029-0.013,1.031-1.586,0-1.599c-4.991-0.063-9.983-0.027-14.975-0.008c-0.098-4.432,0.572-8.7,1.874-12.79
		c4.586,0.174,9.168,0.32,13.763,0.343c0.821,0.004,0.804-1.208,0-1.264c-4.422-0.306-8.84-0.496-13.264-0.659
		c1.403-3.809,3.471-7.424,6.178-10.813c15.428,0.11,30.77,0.881,46.086,2.815c0.669,0.084,0.834-1.085,0.16-1.187
		c-15.108-2.272-30.243-3.275-45.514-2.564c3.056-3.612,6.894-6.942,11.571-9.924c0.855-0.545,1.752-1.034,2.635-1.543
		c10.2-0.029,20.333,0.411,30.485,1.521c0.99,0.108,0.971-1.425,0-1.543c-9.243-1.125-18.528-1.622-27.83-1.456
		c5.03-2.62,10.421-4.673,15.949-6.216c0.033,0.315,0.232,0.604,0.652,0.591c12.809-0.414,25.434,0.117,38.14,1.874
		c1.011,0.14,1.464-1.398,0.43-1.56c-11.765-1.839-23.606-2.487-35.487-1.857c4.824-1.133,9.714-1.901,14.54-2.278
		c28.633-2.236,57.221,8.449,77.245,29.018C218.1,85.709,216.069,166.876,154.481,191.195z"/>
	<path d="M102.08,56.273c-4.294-11.482-17.733-13.665-28.484-11.771c-0.209-0.164-0.458-0.266-0.756-0.183
		c-9.797,2.712-14.423,12.295-10.074,21.726c4.542,9.849,17.187,15.341,27.501,12.185C99.232,75.486,105.493,65.397,102.08,56.273z
		 M89.39,75.044C72.678,80.526,54.536,57.84,70.747,47.556c0.263,0.359,0.658,0.599,1.209,0.525
		c8.187-1.098,17.357-1.835,23.701,4.665C102.883,60.149,98.881,71.93,89.39,75.044z"/>
	<path d="M78.91,146.814c-6.545-8.138-17.588-5.454-25.312-0.918c-0.061,0.036-0.09,0.087-0.142,0.127
		c-2.651-4.944-8.851-7.029-13.52-3.106c-5.215,4.382-3.634,11.59,0.521,16.113c-0.588,6.316,2.618,15.099,10.147,14.633
		c4.786-0.296,6.455-6.124,11.159-7.222c4.97-1.161,9.093,3.122,14.125-0.095C82.085,162.382,83.435,152.441,78.91,146.814z
		 M70.566,165.389c-2.246,0.482-5.318-1.09-7.734-1.228c-2.786-0.159-4.358,0.229-6.502,1.99c-3.223,2.645-1.66,3.985-6.825,3.451
		c-5.541-0.573-7.36-4.688-7.646-9.531c0.678-0.023,1.289-0.743,0.869-1.485c-2.16-3.819-5.495-8.237-2.07-12.46
		c3.336-4.113,9.493-3.058,11.934,1.424c0.137,0.251,0.381,0.316,0.629,0.313c0.37,0.533,1.049,0.845,1.776,0.425
		c6.644-3.84,18.141-7.001,22.852,1.779C81.252,156.41,77.148,163.975,70.566,165.389z"/>
	<path d="M146.948,166.128c-3.104-2.315-0.942-6.346-3.068-9.644c-1.355-2.102-3.971-3.145-6.391-3.176
		c-5.446-0.07-11.613,5.975-9.9,11.609c0.297,0.977,1.67,0.966,1.972,0c1.102-3.522,1.878-7.303,5.981-8.519
		c1.609-0.477,3.339-0.328,4.731,0.609c2.088,1.405,1.512,3.296,1.799,5.397c0.285,2.094,1.337,3.675,2.824,4.748
		c0.037,0.26,0.163,0.504,0.485,0.666c0.821,0.413,4.992,2.374,5.099,2.461c5.297,4.315,1.091,13.84-4.72,14.337
		c-4.854,0.415-7.175-3.445-11.161-4.294c-8.368-1.783-8.815,11.339-16.271,11.667c-0.037,0.002-0.049,0.03-0.083,0.036
		c-3.912,0.064-8.688-1.335-6.677-6.25c0.542-1.326,1.567-2.436,2.114-3.775c0.749-1.836,1.128-3.586,0.076-5.424
		c-0.729-1.272-1.705-1.347-2.646-2.294c-2.672-2.688-4.481-5.348-1.067-8.779c4.782-4.806,12.669-2.491,16.837,1.661
		c0.548,0.546,1.539-0.168,1.095-0.845c-3.027-4.615-8.557-6.946-14.025-5.749c-5.065,1.109-10.421,6.29-8.44,11.895
		c1.125,3.182,6.136,3.994,6.014,7.69c-0.094,2.852-3.554,5.169-3.652,8.314c-0.193,6.156,6.806,6.731,11.288,5.762
		c0.507-0.109,0.705-0.527,0.74-0.962c1.691-0.068,3.066-0.632,4.599-1.902c0.943-0.782,1.566-1.824,2.327-2.753
		c2.875-3.506,4.772-5.476,9.764-3.687c2.263,0.811,3.179,2.658,5.895,2.885c2.442,0.204,4.906-0.693,6.975-1.897
		C159.763,179.924,158.01,168.75,146.948,166.128z"/>
	<path d="M196.863,121.712c-2.151-2.617-5.437-3.771-7.265-6.826c-1.25-2.089-1.715-4.499-2-6.934
		c0.562,0.087,1.217-0.215,1.191-0.898c-0.231-6.124-6.247-10.557-12.163-8.335c-2.5,0.939-4.449,2.893-5.4,5.368
		c-1.705,4.439,0.741,12.5-4.525,14.706c-5.625-0.278-12.786,0.817-13.992,7.387c-0.458,2.498,0.242,4.469,2.002,6.227
		c1.465,1.463,3.611,2.022,5.042,3.55c2.536,2.707,1.799,4.996,2.317,7.884c1.069,5.97,6.414,10.641,12.652,9.466
		c6.15-1.158,8.848-7.523,8.862-13.232c0.001-0.297-0.125-0.522-0.283-0.71c6.864,1.164,14.949-1.995,16.062-9.659
		C199.818,126.581,198.842,124.12,196.863,121.712z M183.017,136.879c-1.136-0.005-1.499,1.441-0.787,2.092
		c-0.442,0.042-0.865,0.249-1.001,0.786c-1.396,5.526-4.62,14.228-12.243,9.911c-5.217-2.954-3.21-7.905-5.035-12.366
		c-0.784-1.918-2.156-3.353-3.78-4.593c-2.77-2.114-2.532-0.647-2.75-5.54c-1.378-3.719,0.061-5.744,4.317-6.076
		c1.999-0.317,4.007-0.546,6.026-0.687c0.519-0.044,0.758-0.437,0.74-0.819c2.48-1.409,3.709-4.499,4.122-7.465
		c0.529-3.801,0.067-8.231,3.971-10.478c3.9-2.245,7.644-0.197,9.387,3.244c-0.566,4.537-0.387,9.236,2.487,13.03
		c1.718,2.269,4.418,3.509,6.215,5.705C202.354,132.996,189.318,136.91,183.017,136.879z"/>
	<path d="M73.25,103.852c-6.612-0.015-13.221,0.03-19.832,0.093c-0.67,0.006-0.671,1.035,0,1.041
		c6.611,0.063,13.22,0.108,19.832,0.093C74.039,105.077,74.041,103.853,73.25,103.852z"/>
</g>
<g>
</g>
<g>
</g>
<g>
</g>
<g>
</g>
<g>
</g>
<g>
</g>
<g>
</g>
<g>
</g>
<g>
</g>
<g>
</g>
<g>
</g>
<g>
</g>
<g>
</g>
<g>
</g>
<g>
</g>
</svg>
