<?xml version="1.0" encoding="iso-8859-1"?>
<!-- Generator: Adobe Illustrator 18.0.0, SVG Export Plug-In . SVG Version: 6.00 Build 0)  -->
<!DOCTYPE svg PUBLIC "-//W3C//DTD SVG 1.1//EN" "http://www.w3.org/Graphics/SVG/1.1/DTD/svg11.dtd">
<svg version="1.1" id="Capa_1" xmlns="http://www.w3.org/2000/svg" xmlns:xlink="http://www.w3.org/1999/xlink" x="0px" y="0px"
	 viewBox="0 0 194.393 194.393" style="enable-background:new 0 0 194.393 194.393;" xml:space="preserve">
<g>
	<path d="M166.134,72.746c-0.465-0.009-0.685,0.39-0.664,0.771c-1.653,1.307-3.006,3.103-4.431,4.63
		c-1.74,1.865-3.471,3.736-5.19,5.619c-0.187,0.205-0.208,0.426-0.162,0.634c-0.673-0.31-1.359-0.555-2.074-0.625
		c-2.863-0.279-5.442,1.439-5.367,4.37c0.001,0.025,0.024,0.038,0.027,0.061c-0.484-0.087-0.98-0.119-1.492-0.072
		c-0.219,0.02-0.391,0.116-0.596,0.16c1.259-27.345,1.515-54.786,2.441-82.15c0.023-0.68-0.407-1.049-0.911-1.148
		c0.708-0.518,0.708-1.994-0.352-2.171C115.344-2.523,79.257,0.758,47.133,4.16c-0.238,0.025-0.419,0.132-0.542,0.277
		c-0.565-0.241-1.27-0.168-1.698,0.5c-9.602,14.981-19.84,29.484-29.656,44.316c-0.202,0.305-0.096,0.615,0.1,0.858
		c-0.035,0.104-0.079,0.203-0.087,0.327c-2.847,44.374-4.439,89.048-3.698,133.515c0.007,0.427,0.238,0.67,0.522,0.828
		c-0.099,0.395,0.03,0.84,0.508,0.918c16.649,2.702,33.597,2.794,50.409,1.845c-0.931,1.504-1.845,3.016-2.815,4.501
		c-0.484,0.742,0.01,1.72,0.797,1.959c4.385,1.328,8.23-1.037,12.206-2.753c4.565-1.971,9.214-3.834,13.75-5.907
		c19.567-0.714,39.106-2.672,58.695-1.858c1.403,0.058,1.708-1.59,0.951-2.393c2.438-16.94,2.772-34.265,2.975-51.348
		c0.004-0.333-0.114-0.581-0.276-0.781c5.281-5.505,10.517-11.049,15.691-16.63c1.374-0.957,1.996-2.101,2.107-3.343
		c3.518-0.347,5.973-3.278,5.786-6.903c-0.044-0.846-0.258-1.62-0.541-2.362c0.193,0.006,0.398-0.057,0.585-0.238
		c1.434-1.384,2.83-2.805,4.231-4.222c1.272-1.286,2.769-2.494,3.747-4.02c0.162-0.253,0.142-0.527,0.056-0.786
		c0.768,0.488,2.167,0.04,2.083-1.073C182.359,80.615,175.07,72.916,166.134,72.746z M13.545,184.194
		c0.026-0.09,0.105-0.134,0.107-0.241c0.05-2.23,0.103-4.458,0.153-6.688c10.907-0.938,21.818-1.842,32.673-3.272
		c0.655-0.086,0.697-1.106,0-1.06c-10.913,0.723-21.779,1.978-32.647,3.195c0.047-2.083,0.098-4.163,0.144-6.245
		c0.032,0.002,0.048,0.031,0.082,0.026c4.86-0.614,9.539-0.547,14.392,0.124c0.757,0.105,1.118-1,0.326-1.183
		c-4.852-1.124-9.894-1.127-14.774-0.144c0.06-2.662,0.127-5.323,0.188-7.985c14.296-0.335,28.59-0.854,42.862-1.727
		c0.853-0.052,0.868-1.358,0-1.339c-14.287,0.321-28.568,0.998-42.833,1.857c0.155-6.696,0.32-13.391,0.485-20.085
		c4.517,0.073,8.986-0.244,13.417-1.158c0.776-0.161,0.444-1.328-0.326-1.183c-4.331,0.813-8.668,1.334-13.07,1.444
		c0.261-10.495,0.575-20.988,0.887-31.481c8.742-0.17,17.498-0.448,26.224-1.01c1.089-0.07,1.109-1.746,0-1.711
		c-8.736,0.28-17.475,0.848-26.19,1.519c0.2-6.671,0.426-13.343,0.651-20.015c8.302-0.333,16.626-0.713,24.894-1.51
		c0.864-0.083,0.9-1.403,0-1.376c-8.291,0.251-16.586,0.922-24.853,1.637c0.119-3.501,0.281-7.003,0.409-10.505
		c5.334-0.308,10.722-0.444,16.014-1.156c0.71-0.096,0.534-1.263-0.168-1.242c-5.276,0.156-10.556,0.902-15.81,1.463
		c0.278-7.568,0.538-15.136,0.883-22.706c0.023-0.493-0.212-0.81-0.53-0.99c0.063-0.074,0.12-0.154,0.182-0.229
		c0.04,0.006,0.054,0.041,0.098,0.043c13.033,0.501,26.088,0.041,39.123-0.191c0.968-0.017,1.715-0.946,1.448-1.9
		c-0.332-1.184-0.579-2.378-0.882-3.566c3.277,0.117,6.61,0.263,9.858-0.006c0.585-0.048,0.586-0.863,0-0.911
		c-3.322-0.275-6.735-0.117-10.084,0.001c-0.511-2.051-0.951-4.111-1.401-6.169c2.066,0.033,4.132,0.075,6.197,0.003
		c0.837-0.029,0.839-1.272,0-1.301c-2.163-0.075-4.326-0.027-6.49,0.007c-0.575-2.689-1.082-5.387-1.609-8.081
		c5.657-0.17,11.375-0.507,16.91-1.66c0.787-0.164,0.627-1.511-0.193-1.424c-5.668,0.602-11.285,1.406-16.968,1.824
		c-0.577-2.969-1.152-5.938-1.748-8.906c5.216-0.55,10.434-1.243,15.609-2.069c0.859-0.137,0.667-1.648-0.208-1.534
		c-5.224,0.679-10.452,1.495-15.638,2.454c-0.595-2.93-1.209-5.858-1.882-8.781c-0.303-1.316-2.391-1.033-2.356,0.319
		c0.339,12.923,3.877,26.302,7.459,38.746c-11.968,0.297-23.955,0.477-35.892,1.409c10.61-12.876,20-26.949,28.585-41.209
		c0.132-0.219,0.181-0.43,0.191-0.633c33.189,0.447,66.211-4.684,99.321-0.527c-0.327,0.19-0.584,0.508-0.614,0.99
		c-1.73,27.51-2.928,55.456-1.839,83.012c-1.028,0.814-1.678,2.012-1.65,3.477c0.008,0.419,0.333,0.684,0.682,0.747
		c-0.17-0.001-0.344,0-0.515,0.099c-0.479-0.05-0.938,0.35-0.921,0.826c-21.951,21.337-43.189,43.76-64.045,66.161
		c-0.437,0.469-0.315,1.043,0.025,1.399c-4.475,7.751-8.741,15.578-13.363,23.223c-0.066-0.007-0.117-0.034-0.189-0.031
		C47.35,185.664,30.508,184.822,13.545,184.194z M127.238,128.622c1.265-0.595,2.426-0.633,3.758-0.471
		c-1.463,1.523-2.96,3.011-4.41,4.547c-0.044-0.017-0.07-0.055-0.126-0.057c-1.327-0.047-2.643,0.053-3.966,0.13
		c-0.359,0.021-0.359,0.537,0,0.558c1.13,0.066,2.254,0.117,3.384,0.111c-1.561,1.66-3.178,3.265-4.721,4.943
		c-1.285-0.034-2.548-0.167-3.808-0.569c-0.142-0.045-0.252-0.012-0.353,0.033c4.805-5.065,9.561-10.179,14.224-15.368
		c1.678,0.32,3.373,0.455,5.07,0.277c-1.633,1.667-3.288,3.312-4.906,4.994c-0.021-0.123-0.078-0.238-0.217-0.273
		c-1.488-0.379-2.89-0.089-4.238,0.614C126.575,128.277,126.885,128.788,127.238,128.622z M104.618,152.093
		c1.404,0.116,2.845,0.09,4.261-0.056c-1.28,1.486-2.6,2.939-3.862,4.439c0.176-0.274,0.062-0.744-0.372-0.771
		c-1.837-0.117-3.648,0.207-5.388,0.786c-0.451,0.15-0.266,0.852,0.198,0.717c1.762-0.512,3.375-0.615,5.19-0.536
		c0.138,0.006,0.233-0.049,0.31-0.119c-4.655,5.534-9.207,11.149-13.611,16.869c-0.061-0.028-0.115-0.077-0.177-0.103
		c0.293-1.529-0.054-3.331-0.907-4.299c-0.878-0.996-2.08-1.395-3.283-1.371c0.117-0.106,0.228-0.221,0.346-0.328
		c2.245,0.071,4.502,0.183,6.744,0.04c0.765-0.049,0.766-1.141,0-1.19c-1.84-0.118-3.69-0.06-5.535,0.003
		c1.701-1.557,3.33-3.206,5.012-4.789c1.717,0.048,3.433,0.084,5.152,0.017c0.753-0.029,0.755-1.142,0-1.171
		c-1.31-0.051-2.619-0.043-3.928-0.016c5.212-4.939,10.316-10.011,15.353-15.155c1.679,0.564,3.364,0.556,5.063-0.129
		c-1.802,2.022-3.63,4.021-5.402,6.068c-1.739-0.074-3.543,0.154-5.243,0.509C104.191,151.581,104.302,152.067,104.618,152.093z
		 M115.15,143.955c-1.441,0.481-2.844,0.612-4.243,0.282c1.97-2.019,3.896-4.081,5.838-6.126c-0.11,0.271-0.044,0.629,0.312,0.762
		c1.02,0.382,2.014,0.594,3.02,0.691c-1.454,1.59-2.927,3.164-4.363,4.77C115.655,144.083,115.44,143.858,115.15,143.955z
		 M132.292,121.251c1.628-1.819,3.191-3.678,4.807-5.506c1.809-0.006,3.704,0.097,5.373-0.441c0.499-0.161,0.355-0.795-0.116-0.858
		c-1.428-0.191-2.95,0.089-4.442,0.366c1.441-1.634,2.855-3.284,4.294-4.919c1.799,0.287,3.641,0.593,5.41,0.519
		c0.589-0.025,0.755-0.908,0.144-1.059c-1.474-0.364-3.047-0.467-4.611-0.539c0.723-0.824,1.437-1.653,2.162-2.476
		c2.071,0.089,4.04,0.449,6.083,0.933c0.784,0.186,1.091-0.951,0.331-1.201c-1.745-0.576-3.637-0.776-5.499-0.781
		c0.718-0.82,1.448-1.633,2.15-2.462c0.094-0.111,0.151-0.228,0.192-0.346c1.333,1.45,2.746,2.821,4.16,4.191
		c-5.232,4.817-10.286,9.834-15.285,14.91c-0.1-0.089-0.221-0.156-0.379-0.153C135.439,121.462,133.873,121.419,132.292,121.251z
		 M146.944,101.394c-2.18,2.45-4.403,4.854-6.604,7.28c-0.318-0.014-0.449,0.223-0.425,0.468
		c-15.763,17.356-31.99,34.204-48.18,51.154c-0.104,0.003-0.208,0.006-0.313,0.008c-0.441,0.012-0.56,0.449-0.409,0.748
		c-1.93,2.022-3.864,4.036-5.791,6.063c-0.066-1.075-0.282-2.149-0.604-2.898c-0.741-1.722-2.046-3.15-3.707-3.92
		c21.128-20.901,42.237-42.165,62.311-64.073c1.312,1.685,2.679,3.316,4.086,4.906C147.181,101.183,147.058,101.266,146.944,101.394
		z M63.564,191.677c0.658-1.025,1.273-2.086,1.919-3.122c1.979,0.72,4.211,1.177,6.298,0.714c0.808-0.179,0.614-1.422-0.193-1.424
		c-1.889-0.005-3.577,0.041-5.406-0.428c0.449-0.726,0.89-1.457,1.341-2.181c1.576,0.031,3.147,0.067,4.727-0.007
		c0.789-0.037,0.791-1.19,0-1.227c-1.325-0.063-2.644-0.025-3.965-0.006c0.481-0.779,0.972-1.551,1.439-2.34
		c1.424,0.509,2.689,1.251,3.752,2.354c0.961,0.997,1.456,2.285,2.368,3.287C71.997,189.269,67.275,191.696,63.564,191.677z
		 M83.888,183.573c-0.136,0.014-0.274,0.026-0.41,0.04c-0.34,0.034-0.555,0.22-0.701,0.45c-1.147,0.507-2.296,1.01-3.442,1.516
		c-0.507,0.224-1.057,0.487-1.638,0.776c-0.454-3.148-4.045-5.458-7.01-6.346c3.368-5.816,6.497-11.768,9.056-17.956
		c0.006-0.013-0.006-0.022-0.001-0.035c1.321,0.609,2.316,1.719,2.812,3.161c0.273,0.794,0.382,1.632,0.264,2.466
		c-0.118,0.826-0.574,1.478-0.499,2.321c0.068,0.758,0.79,1.23,1.497,0.859c0.095-0.05,0.158-0.13,0.243-0.19
		c0.008-0.009,0.019-0.004,0.027-0.014c0.009-0.012,0.022-0.02,0.032-0.032c0.192-0.145,0.363-0.305,0.503-0.496
		c1.345-1.05,3.598-1.142,4.308,0.745c0.637,1.695-0.717,2.558-1.237,3.952c-0.207,0.555,0.328,1.184,0.887,1.165
		c0.756-0.026,1.33-0.342,1.759-0.818c1.97,1.27,2.521,3.089,2.554,5.497c0.001,0.058,0.044,0.081,0.051,0.135
		c-0.043,0.043-0.086,0.086-0.129,0.129c-0.262-0.38-0.7-0.62-1.229-0.433C88.974,181.381,86.425,182.462,83.888,183.573z
		 M144.742,180.642c-17.454-0.765-35.078,0.488-52.509,2.127c0.088-0.046,0.18-0.086,0.268-0.132
		c0.161-0.085,0.277-0.198,0.368-0.324c0.251,0.107,0.538,0.134,0.805-0.096c0.244-0.21,0.477-0.435,0.721-0.645
		c0.21-0.086,0.369-0.245,0.507-0.453c18.108-15.657,35.337-32.43,51.994-49.689C146.574,147.861,145.251,164.227,144.742,180.642z
		 M95.305,178.413c-0.258-1.584-1.245-3.055-2.521-4.088c19.714-22.861,40.052-44.877,61.586-66.038
		c1.849,1.708,3.761,3.354,5.765,4.911C138.899,135.33,117.003,156.74,95.305,178.413z M163.773,109.785
		c-0.241,0.053-0.482,0.155-0.701,0.385c-0.385,0.404-0.78,0.798-1.166,1.202c-6.28-5.04-12.147-10.519-17.532-16.508
		c0.277-0.676-0.217-1.381-0.852-1.499c0.302-0.011,0.593-0.147,0.674-0.522c2.998-2.04,5.337-2.027,7.019,0.038
		c0.682,0.711,1.355,1.429,2.02,2.155c1.142,1.209,2.293,2.408,3.442,3.611C158.948,101.023,165.342,105.837,163.773,109.785z
		 M166.702,106.516c-1.675-4.715-8.219-10.017-10.38-12.216c-1.886-1.919-4.193-4.747-6.971-5.776
		c0.049-0.066,0.118-0.108,0.135-0.21c1.044-0.809,2.089-1.617,3.133-2.426c1.074,0.495,2.148,0.989,3.221,1.484
		c0.676,0.51,1.22,1.256,1.797,1.871c1.162,1.239,2.308,2.402,3.657,3.441c1.626,1.253,3.396,2.3,4.986,3.6
		C169.184,98.657,172.495,105.518,166.702,106.516z M179.468,89.834c-1.465,1.079-2.576,2.626-3.784,3.983
		c-1.328,1.492-2.66,2.978-3.952,4.501c-0.027,0.032-0.012,0.067-0.034,0.1c-1.552-2.658-4.385-4.652-6.828-6.318
		c-2.551-1.74-5.186-5.357-8.207-7.205c0.075-0.035,0.153-0.02,0.224-0.088c1.84-1.764,3.669-3.538,5.49-5.321
		c1.602-1.569,3.554-3.059,4.823-4.92c6.986,2.254,12.128,7.764,13.263,15.166c0.01,0.068,0.047,0.112,0.067,0.172
		C180.222,89.673,179.831,89.567,179.468,89.834z"/>
	<path d="M27.959,148.294c-4.189-0.05-8.372-0.033-12.56,0.065c-0.718,0.017-0.719,1.099,0,1.116
		c4.188,0.098,8.371,0.116,12.56,0.065C28.76,149.53,28.762,148.303,27.959,148.294z"/>
	<path d="M33.258,128.612c-5.971,0.48-11.927,1.096-17.888,1.699c-0.538,0.055-0.555,0.894,0,0.855
		c5.967-0.418,11.931-0.824,17.888-1.365C34.013,129.733,34.025,128.55,33.258,128.612z"/>
	<path d="M37.213,117.712c-7.107,0.515-14.257,1.152-21.308,2.204c-0.644,0.096-0.488,1.156,0.153,1.132
		c7.06-0.269,14.139-0.97,21.155-1.774C38.189,119.162,38.23,117.639,37.213,117.712z"/>
	<path d="M31.264,94.253c-4.624,0.505-9.229,0.857-13.883,0.735c-0.493-0.013-0.487,0.735,0,0.762
		c4.696,0.26,9.359,0.161,14.004-0.603C31.886,95.065,31.776,94.197,31.264,94.253z"/>
	<path d="M39.197,62.214c-7.045-0.261-14.106-0.007-21.155,0.093c-0.861,0.012-0.863,1.326,0,1.339
		c7.048,0.099,14.109,0.354,21.155,0.093C40.178,63.702,40.179,62.25,39.197,62.214z"/>
</g>
<g>
</g>
<g>
</g>
<g>
</g>
<g>
</g>
<g>
</g>
<g>
</g>
<g>
</g>
<g>
</g>
<g>
</g>
<g>
</g>
<g>
</g>
<g>
</g>
<g>
</g>
<g>
</g>
<g>
</g>
</svg>
