<?xml version="1.0" encoding="iso-8859-1"?>
<!-- Generator: Adobe Illustrator 18.0.0, SVG Export Plug-In . SVG Version: 6.00 Build 0)  -->
<!DOCTYPE svg PUBLIC "-//W3C//DTD SVG 1.1//EN" "http://www.w3.org/Graphics/SVG/1.1/DTD/svg11.dtd">
<svg version="1.1" id="Capa_1" xmlns="http://www.w3.org/2000/svg" xmlns:xlink="http://www.w3.org/1999/xlink" x="0px" y="0px"
	 viewBox="0 0 218.527 218.527" style="enable-background:new 0 0 218.527 218.527;" xml:space="preserve">
<g>
	<path d="M163.096,80.173c-1.588-18.012-15.366-25.837-31.988-20.142c-8.417,2.884-14.802,9.062-17.84,16.803
		c-0.034,0-0.067,0-0.101,0c-0.643,0.003-0.722,0.767-0.308,1.066c-0.886,2.563-1.435,5.275-1.543,8.098
		c-0.043,0-0.086,0.003-0.129,0.003c-0.798-0.005-0.78,1.17,0,1.227c0.038,0.003,0.079,0.006,0.117,0.008
		c0.005,1.135,0.052,2.279,0.194,3.439c0.121,0.992,0.33,1.974,0.577,2.948c-0.161,0.254-0.082,0.603,0.207,0.766
		c2.987,10.369,12.779,18.981,23.673,16.298c0.242,0.453,0.715,0.767,1.357,0.585C152.19,107.042,164.572,96.91,163.096,80.173z
		 M161.061,84.076c-1.055,13.895-12.195,21.32-24.41,24.794c-0.224,0.064-0.389,0.176-0.524,0.308
		c-7.183,0.729-13.42-2.389-17.491-7.501c4.768,0.252,9.653,0.542,14.364,0.096c0.664-0.063,0.65-0.944,0-1.023
		c-4.98-0.603-10.176-0.385-15.218-0.259c-1.228-1.771-2.185-3.755-2.888-5.857c5.803,0.364,11.644,0.689,17.446,0.644
		c0.883-0.007,0.863-1.293,0-1.357c-5.905-0.439-11.877-0.5-17.809-0.521c-0.526-1.918-0.819-3.928-0.848-5.994
		c6.4,0.472,13.396,0.905,19.515-0.426c0.771-0.168,0.525-1.236-0.175-1.296c-6.292-0.541-12.886,0.119-19.293,0.261
		c0.127-2.763,0.666-5.378,1.558-7.81c10.298,0.454,20.63,0.924,30.934,0.781c1.059-0.015,1.047-1.58,0-1.636
		c-10.091-0.543-20.231-0.498-30.341-0.456c1.272-2.936,3.095-5.559,5.324-7.835c0.049,0.256,0.213,0.484,0.557,0.473
		c6.692-0.224,13.207,0.472,19.835,1.28c0.68,0.083,0.814-1.032,0.161-1.187c-6.473-1.536-13.171-1.726-19.79-1.346
		c2.031-1.913,4.381-3.54,6.992-4.824c5.694,1.169,11.38,2.358,17.119,3.297c0.73,0.12,1.059-0.974,0.311-1.13
		c-5.26-1.094-10.556-1.971-15.854-2.851c0.391-0.166,0.767-0.353,1.169-0.504C148.155,56.024,162.408,66.349,161.061,84.076z"/>
	<path d="M201.963,126.812c-11.199-9.182-23.059-17.51-35.485-24.944c3.826-5.246,6.406-11.455,7.067-18.477
		c1.501-15.919-7.015-29.364-20.209-34.494c0.031-2.389-0.101-4.785-0.217-7.17c-0.034-0.695-0.612-0.948-1.126-0.851
		c-0.147-0.356-0.433-0.66-0.9-0.811c-22.214-7.155-46.126-5.676-66.276,6.369c-0.314-0.519-0.955-0.714-1.498-0.599
		C70.986,28.377,47.517,22.01,27.075,25.303c-0.817-0.325-1.949,0.074-1.951,1.22c-0.009,6.029-0.073,12.078-0.147,18.134
		c-5.653-0.447-13.504,0.763-16.934,5.599c-0.363,0.1-0.674,0.354-0.62,0.796c0.406,3.261,0.726,6.493,1.101,9.743
		c-2.586,0.254-5.084,0.859-7.449,1.997C0.507,62.998-0.05,63.533,0.004,64.2c0.39,4.864,0.713,9.727,1.059,14.591
		c-0.477,0.315-0.443,1.024,0.093,1.279c0.205,2.914,0.444,5.829,0.635,8.743c-0.35,0.221-0.302,0.78,0.057,0.972
		c1.527,23.618,2.556,47.246,3.066,70.932c0.018,0.85,0.641,1.29,1.299,1.355c0.184,0.216,0.433,0.376,0.792,0.307
		c22.488-4.31,44.924-7.84,67.793-9.324c0.311-0.02,0.551-0.136,0.759-0.285c4.185,5.69,12.4,6.578,17.965,2.229
		c0.834,11.234-0.131,22.11-3.438,33.148c-0.25,0.835,0.192,1.431,0.801,1.696c-0.105,0.552,0.572,1.085,1.104,0.609
		c2.358-2.11,4.731-4.257,7.181-6.277c0.432,1.552,0.87,3.102,1.314,4.65c0.501,1.745,0.731,3.594,1.941,4.983
		c0.343,0.394,1.061,0.298,1.359-0.12c0.145-0.062,0.284-0.156,0.412-0.291c8.76-9.287,7.775-28.028,5.543-41.413
		c0.112,0.196,0.292,0.35,0.556,0.404c18.303,3.765,36.834,6.318,55.368,8.641c1.162,0.146,1.719-1.153,1.574-2.065
		c-1.961-12.314-3.492-24.671-4.281-37.113c11.503,11.129,24.753,21.412,37.782,29.808c5.547,3.575,16.155,5.78,17.418-2.071
		c0.009-0.024,0.035-0.03,0.042-0.056C220.672,139.468,208.638,132.285,201.963,126.812z M170.774,87.509
		c-2.403,10.25-8.848,18.347-17.255,23.568c-0.063,0.034-0.126,0.053-0.173,0.106c-5.878,3.61-12.693,5.834-19.785,6.36
		c-0.337,0.025-0.565,0.193-0.721,0.412c-17.272-0.912-31.463-12.425-31.44-31.206c0.023-18.408,14.376-33.118,31.769-37.059
		C156.829,44.33,176.379,63.601,170.774,87.509z M150.314,42.898c0.327,0.103,0.605,0.069,0.855-0.017
		c-0.089,1.736-0.149,3.474-0.155,5.213c-4.344-1.313-9.109-1.796-14.167-1.176c-20.861,2.558-38.443,20.312-37.126,41.899
		c1.07,17.535,15.93,32.087,33.47,30.543c0.121,0.05,0.205,0.146,0.37,0.135c7.399-0.494,14.569-2.762,20.754-6.484
		c0.29,0.319,0.605,0.63,0.898,0.949c0.002,0.033-0.024,0.052-0.019,0.086c1.372,9.065,2.32,18.071,2.792,27.223
		c-0.157-0.172-0.35-0.324-0.628-0.412c-20.557-6.504-51.505-9.007-70.635,3.218c-0.007-0.066,0.041-0.106,0.022-0.177
		c-0.039-0.143-0.109-0.264-0.15-0.406c2.469-31.502,0.54-63.705-1.499-95.192C106.089,38.5,127.977,35.829,150.314,42.898z
		 M27.898,26.884C49.637,27.32,67.38,31.44,82.466,48.241c1.799,30.422,1.397,60.845,2.572,91.253
		c-9.146-18.256-40.28-20.182-57.595-14.947C29.625,92.189,28.057,59.309,27.898,26.884z M16.686,48.417
		c2.665-0.932,5.451-1.388,8.263-1.524c-0.336,26.048-0.895,52.259,0.961,78.126c-1.605,0.627-0.911,3.205,0.805,2.673
		c16.021-4.965,45.523-4.685,55.852,12.337c-16.9-11.743-45.985-0.697-63.193,7.195c-0.692-0.03-1.377-0.057-2.046-0.057
		c1.021-31.645-1.662-64.301-7.955-95.309C11.92,50.988,14.11,49.317,16.686,48.417z M6.883,132.826
		c1.9-0.583,3.822-0.782,5.8-0.616c0.737,0.062,0.708-1.048,0-1.134c-2.043-0.25-3.909-0.036-5.846,0.597
		c-0.089-2.455-0.201-4.91-0.292-7.365c1.719,0.256,3.41,0.215,5.069-0.411c0.741-0.28,0.463-1.383-0.331-1.201
		c-1.617,0.37-3.145,0.556-4.788,0.349c-0.068-1.805-0.146-3.609-0.214-5.414c1.915,0.06,3.825,0.119,5.742,0.073
		c0.789-0.019,0.791-1.208,0-1.227c-1.932-0.047-3.856,0.013-5.785,0.073c-0.054-1.377-0.096-2.755-0.164-4.132
		c-0.059-1.21-0.24-2.929-0.472-4.955c0.088,0.163,0.226,0.297,0.471,0.306c1.32,0.051,2.652,0.178,3.966,0.037
		c0.811-0.087,0.813-1.177,0-1.264c-1.313-0.141-2.648-0.014-3.966,0.037c-0.313,0.012-0.465,0.219-0.522,0.449
		c-0.159-1.368-0.342-2.903-0.531-4.518c1.391,0.119,2.711-0.061,4.03-0.706c0.609-0.298,0.181-1.336-0.466-1.104
		c-1.239,0.443-2.432,0.637-3.704,0.605c-0.241-2.099-0.483-4.357-0.699-6.676c1.666,0.148,3.366,0.015,4.887-0.702
		c0.682-0.321,0.176-1.289-0.487-1.155c-1.558,0.314-2.983,0.631-4.511,0.654c-0.108-1.233-0.202-2.482-0.286-3.735
		c1.864-0.248,3.773-0.684,5.332-1.646c0.669-0.412,0.243-1.521-0.544-1.291c-1.664,0.485-3.239,1.054-4.878,1.501
		c-0.154-2.688-0.23-5.372-0.185-7.944c1.382,0.085,2.78,0.143,4.102-0.121c0.772-0.154,0.772-1.406,0-1.56
		c-1.295-0.259-2.666-0.206-4.024-0.125c0.049-1.157,0.138-2.269,0.249-3.356c1.41,0.191,2.828,0.355,4.22,0.321
		c0.71-0.017,0.939-1.177,0.175-1.296c-1.392-0.218-2.826-0.251-4.258-0.253c0.114-0.884,0.285-1.691,0.45-2.505
		c0.991,0.017,1.982,0.034,2.973,0.051c0.837,0.015,0.839-1.316,0-1.301c-0.911,0.016-1.823,0.031-2.734,0.047
		c0.805-3.241,2.102-5.768,4.129-7.056c2.907,25.657,4.855,51.072,5.898,76.889c-2.503,0.029-5.002,0.172-7.515,0.131
		C7.095,137.725,6.97,135.276,6.883,132.826z M7.767,160.436c-0.029-1.492-0.091-2.983-0.125-4.475
		c7.486,0.44,15.153-0.026,22.726-0.596C22.781,156.759,15.239,158.418,7.767,160.436z M39.094,153.884
		c-0.056-0.286-0.241-0.542-0.63-0.533c-10.173,0.227-20.755,0.1-30.849,1.607c-0.106-4.544-0.263-9.085-0.406-13.627
		c2.479,0.196,5.068,0.3,7.534-0.045c0.078,1.992,0.194,3.969,0.26,5.966c-2.159,0.16-4.057,0.557-5.358,1.381
		c0.6-0.38,0.079-1.204-0.544-0.931c-0.163,0.071-0.327,0.143-0.49,0.214c-0.573,0.251-0.22,1.046,0.292,1.081
		c2.061,0.138,4.124,0.237,6.186,0.364c0.008,0.26,0.024,0.517,0.032,0.778c0.038,1.26,1.685,1.308,2.018,0.264
		c0.012-0.005,0.023,0.005,0.035-0.001c0.605-0.259,1.267-0.536,1.905-0.806c12.068,0.707,24.14,1.343,36.205,2.181
		C49.872,152.364,44.471,153.051,39.094,153.884z M103.336,189.556c-0.152-0.46-0.31-0.922-0.452-1.393
		c-0.641-2.122-1.259-4.252-1.949-6.358c-0.256-0.782-1.348-1.219-1.959-0.517c-1.7,1.951-3.536,3.805-5.381,5.643
		c3.702-12.435,4.372-25.442,1.331-38.112c2.184-0.045,4.358-0.147,6.537-0.339c1.843-0.162,3.798-0.172,5.607-0.615
		C108.285,161.304,109.513,177.247,103.336,189.556z M159.289,156.94c-8.448,0.738-18.676-2.523-27.163-3.695
		c-7.183-0.993-14.371-1.929-21.573-2.772c-0.542-0.063-0.873,0.358-0.938,0.823c-0.276-1.599-0.564-3.135-0.857-4.542
		c0.022-0.195-0.015-0.37-0.111-0.547c-0.016-0.074-0.032-0.158-0.047-0.232c-0.147-0.687-1.039-0.756-1.46-0.358
		c-1.971-0.087-4.038,0.397-5.973,0.673c-2.464,0.351-4.904,0.771-7.333,1.316c-0.178,0.04-0.301,0.14-0.374,0.267
		c-0.343,0.134-0.625,0.387-0.566,0.834c0.182,1.384,0.32,2.757,0.45,4.128c-0.422-0.324-0.98-0.438-1.493-0.081
		c-4.825,3.358-11.286,2.51-15.257-1.808c-0.194-0.211-0.43-0.29-0.665-0.285c-0.229-0.327-0.593-0.556-1.132-0.524
		c-5.79,0.345-11.567,0.811-17.328,1.4c0.091-0.309-0.055-0.717-0.477-0.772c-7.971-1.029-15.992-1.732-24.013-2.238
		c-2.171-0.137-5.472-0.615-8.973-0.971c18.262-7.362,45.011-15.739,60.187-2.608c0.342,0.296,0.719,0.387,1.07,0.348
		c0.003,0.077,0.005,0.153,0.009,0.23c0.022,0.468,0.42,0.612,0.753,0.512c0.197,0.171,0.443,0.271,0.771,0.135
		c22.53-9.378,46.55-7.97,69.821-2.629c1.04,0.239,1.696-0.566,1.709-1.371c0.468,0.36,1.297,0.158,1.355-0.623
		c0.619-8.346-0.051-16.732-1.903-24.882c0.932,0.97,1.907,1.924,2.867,2.883c-0.012,0.075-0.077,0.105-0.074,0.19
		c0.256,7.966,0.633,15.921,1.4,23.856c0.245,2.538,1.039,5.672,0.919,8.129C162.635,156.901,164.279,156.504,159.289,156.94z
		 M216.324,146.563c-1.265,9.272-9.549,5.747-15.96,1.589c2.921-0.48,6.139-0.713,8.9-1.7c0.713-0.255,0.667-1.459-0.19-1.406
		c-3.134,0.195-6.367,1.351-9.422,2.075c-0.212,0.05-0.312,0.181-0.361,0.331c-2.949-2.003-5.354-3.995-6.239-4.651
		c-0.285-0.211-0.563-0.43-0.847-0.642c6.706,0.122,13.426,0.172,20.124-0.022c0.753-0.022,0.755-1.149,0-1.171
		c-7.222-0.21-14.472-0.147-21.7-0.001c-2.403-1.809-4.801-3.624-7.191-5.451c2.58,0.035,5.153,0.057,7.736-0.053
		c0.67-0.028,0.671-1.012,0-1.041c-3.081-0.131-6.145-0.083-9.229-0.038c-1.083-0.835-2.195-1.631-3.269-2.478
		c-0.712-0.561-1.393-1.157-2.098-1.725c3.101,0.272,6.196,0.537,9.31,0.644c0.705,0.025,0.677-1.009,0-1.078
		c-3.519-0.36-7.041-0.521-10.573-0.695c-0.034-0.002-0.046,0.025-0.076,0.028c-1.961-1.601-3.936-3.186-5.865-4.822
		c3.302,0.094,6.598,0.197,9.901,0.023c0.741-0.039,0.742-1.114,0-1.153c-3.721-0.196-7.43-0.047-11.153,0.053
		c-2.088-1.783-4.173-3.567-6.244-5.37c3.344,0.305,6.874,0.118,10.126-0.012c0.909-0.036,0.91-1.377,0-1.413
		c-3.729-0.149-7.816-0.365-11.57,0.172c-1.106-0.965-2.221-1.919-3.327-2.886c-0.013-0.048-0.019-0.097-0.032-0.144
		c-0.135-0.501-0.502-0.65-0.873-0.642c-0.242-0.211-0.485-0.42-0.727-0.632c0.46-0.297,0.857-0.671,1.304-0.985
		c4.171,0.656,8.36,0.977,12.58,0.543c0.838-0.086,0.88-1.353,0-1.339c-3.733,0.059-7.441,0.044-11.147-0.287
		c2.396-1.838,4.658-3.836,6.595-6.134c8.733,5.327,17.292,10.898,25.475,17.046c6.466,4.857,23.594,15.349,26.214,25.176
		C216.439,146.371,216.344,146.42,216.324,146.563z"/>
	<path d="M134.984,105.285c-3.695-0.243-7.544-0.029-11.239,0.205c-0.466,0.029-0.467,0.696,0,0.725
		c3.694,0.233,7.544,0.448,11.239,0.205C135.713,106.372,135.714,105.333,134.984,105.285z"/>
</g>
<g>
</g>
<g>
</g>
<g>
</g>
<g>
</g>
<g>
</g>
<g>
</g>
<g>
</g>
<g>
</g>
<g>
</g>
<g>
</g>
<g>
</g>
<g>
</g>
<g>
</g>
<g>
</g>
<g>
</g>
</svg>
