<?xml version="1.0" encoding="iso-8859-1"?>
<!-- Generator: Adobe Illustrator 18.0.0, SVG Export Plug-In . SVG Version: 6.00 Build 0)  -->
<!DOCTYPE svg PUBLIC "-//W3C//DTD SVG 1.1//EN" "http://www.w3.org/Graphics/SVG/1.1/DTD/svg11.dtd">
<svg version="1.1" id="Capa_1" xmlns="http://www.w3.org/2000/svg" xmlns:xlink="http://www.w3.org/1999/xlink" x="0px" y="0px"
	 viewBox="0 0 206.074 206.074" style="enable-background:new 0 0 206.074 206.074;" xml:space="preserve">
<g>
	<g>
		<path d="M205.199,139.535c-1-0.196-2.013-0.344-3.023-0.502c4.832-40.135,1.639-84.226-3.88-123.873
			c-0.076-0.545-0.41-0.872-0.826-1.044c0.912-0.648,1.006-1.671,0.619-2.498c0.28,0,0.567,0.001,0.847,0
			c2.225-0.004,2.146-3.204,0-3.402c-39.796-3.675-82.749-7.208-122.654-4.77c-0.493-0.408-1.179-0.59-1.826-0.224
			C49.43,17.345,25.657,35.933,2.609,53.08c-0.637,0.474-0.695,1.218-0.438,1.787c-0.265,0.104-0.491,0.254-0.638,0.466
			C0.701,55.513-0.014,56.126,0,57.23c0.608,46.738,3.005,93.462,8.823,139.86c-0.086,0.004-0.173,0.002-0.259,0.006
			c-0.95,0.041-1.229,1.481-0.232,1.717c0.438,0.104,0.89,0.169,1.331,0.268c0.251,0.129,0.523,0.184,0.79,0.159
			c23.38,5.128,48.859,4.327,72.623,3.815c24.913-0.537,50.278-2.019,74.786-6.697c1.864-0.356,1.584-3.311-0.146-3.52
			c0.105-0.186,0.178-0.402,0.163-0.687c-0.002-0.039-0.005-0.078-0.007-0.117c0.165-0.041,0.33-0.103,0.488-0.225
			c16.206-12.398,33.051-27.727,43.228-45.667c0.309-0.545,0.232-1.122-0.031-1.599c0.132-0.939,0.198-1.911,0.32-2.855
			c0.998,0.095,1.997,0.201,2.995,0.257C206.238,142.023,206.564,139.803,205.199,139.535z M33.461,36.647
			c7.485-0.52,14.986-0.679,22.488-0.492c0.719,0.018,0.716-1.087,0-1.116c-6.94-0.276-13.837-0.054-20.748,0.466
			c3.751-2.446,7.483-4.926,11.186-7.439c6.737-0.207,13.436,0.035,20.138,0.849c0.759,0.092,0.75-1.096,0-1.19
			c-6.179-0.771-12.352-1.021-18.552-0.76c3.72-2.542,7.389-5.137,11.022-7.766c2.944,0.336,5.856,0.833,8.739,1.59
			c0.534,0.14,0.752-0.661,0.227-0.825c-2.549-0.797-5.154-1.273-7.782-1.622c2.553-1.861,5.072-3.751,7.566-5.664
			c2.682,0.008,5.359,0.057,8.035,0.13c1.021,5.615,1.791,11.432,3.762,16.782c0.304,0.826,1.761,0.794,1.662-0.225
			c-0.545-5.596-2.297-11.08-3.811-16.503c5.635,0.188,11.261,0.525,16.883,1.124c0.967,0.103,0.948-1.393,0-1.506
			c-5.789-0.693-11.584-1.108-17.392-1.24c-0.258-0.526-0.927-0.467-1.194-0.03c-2.036-0.03-4.075-0.013-6.116,0.04
			c2.313-1.8,4.611-3.614,6.851-5.474c0.155-0.129,0.255-0.274,0.339-0.421c37.791,5.677,78.531,6.283,116.936,6.261
			c-8.552,5.217-16.703,10.994-24.31,17.528c-7.248,6.226-16.09,13.638-20.639,22.266c-22.696-0.983-45.51-1.324-68.314-0.952
			c-0.084-0.428-0.159-0.867-0.245-1.292c-0.14-0.689-1.246-0.532-1.223,0.166c0.013,0.378,0.038,0.763,0.052,1.142
			c-24.597,0.435-49.178,1.715-73.58,4.02C14.679,48.622,24.108,42.718,33.461,36.647z M83.076,198.705
			c-23.891,0.552-47.925-2.39-71.726-1.672c-0.302-3.833-0.564-7.665-0.856-11.497c3.912-0.392,7.826-0.781,11.737-1.183
			c0.933-0.096,0.938-1.571,0-1.469c-3.946,0.429-7.891,0.87-11.837,1.31c-0.201-2.648-0.371-5.296-0.566-7.944
			c5.95-0.85,11.907-1.666,17.839-2.637c0.665-0.109,0.374-1.096-0.277-1.004c-5.888,0.83-11.755,1.812-17.625,2.762
			c-0.225-3.057-0.416-6.115-0.633-9.172c4.903-0.229,9.782-0.758,14.587-1.784c0.774-0.165,0.444-1.338-0.326-1.183
			c-4.752,0.953-9.511,1.598-14.333,1.919c-0.24-3.396-0.444-6.793-0.673-10.19c8.779-0.878,17.587-1.437,26.408-1.643
			c0.919-0.021,0.924-1.443,0-1.432c-8.879,0.106-17.685,0.761-26.494,1.784c-0.559-8.354-1.078-16.709-1.556-25.066
			c8.252-0.313,16.504-0.593,24.747-1.085c0.818-0.049,0.829-1.317,0-1.283c-8.273,0.342-16.533,0.897-24.796,1.418
			c-0.231-4.069-0.435-8.138-0.642-12.208c7.48-0.099,14.916-0.669,22.305-1.888c0.84-0.138,0.478-1.399-0.351-1.273
			c-7.316,1.11-14.629,1.801-22.016,1.989c-0.214-4.241-0.358-8.486-0.543-12.728c8.682-0.567,17.368-1.089,26.034-1.876
			c0.894-0.081,0.914-1.477,0-1.413c-8.706,0.61-17.388,1.485-26.076,2.314c-0.221-5.115-0.4-10.233-0.582-15.35
			c7.926,0.125,15.745-0.481,23.527-2.102c0.817-0.17,0.46-1.371-0.341-1.237c-7.715,1.285-15.434,1.966-23.24,1.911
			c-0.165-4.759-0.244-9.524-0.366-14.286c10.788,0.162,21.587,0.055,32.373-0.038c1.196-0.01,1.199-1.865,0-1.859
			c-10.799,0.051-21.613,0.087-32.411,0.394C4.28,64.449,4.14,60.899,4.094,57.342c25.106-0.872,50.15-1.513,75.198-1.818
			c0.317,4.652,0.846,9.328,1.813,13.824c0.199,0.926,1.663,0.715,1.644-0.222c-0.096-4.5-0.652-9.095-1.398-13.616
			c21.604-0.246,43.213-0.257,64.873,0.142c-0.514,0.315-0.889,0.846-0.858,1.655c1.711,44.938,4.13,90.226,9.91,134.843
			c0.045,0.343,0.205,0.603,0.41,0.806C131.457,195.202,107.453,198.142,83.076,198.705z M198.931,144.093
			c-13.212,15.849-25.244,31.047-41.282,44.172c-2.38-43.67-5.926-87.269-8.157-130.956c-0.04-0.783-0.445-1.308-0.969-1.629
			c0.939,0.018,1.875,0.013,2.814,0.032c2.464,0.052,2.649-3.323,0.651-4.042c6.355-5.294,11.692-12.134,17.909-17.601
			c7.821-6.877,16.26-12.929,25.115-18.381c2.57,40.951,2.11,82.074,4.373,122.938c-4.103-0.531-8.246-0.882-12.33-1.356
			c-1.34-0.155-1.671,2.191-0.321,2.374c4.245,0.574,8.52,1.302,12.799,1.808c0.042,0.725,0.07,1.452,0.114,2.177
			C199.394,143.707,199.146,143.834,198.931,144.093z"/>
		<path d="M82.765,86.973c-0.029-1.064-1.626-1.066-1.655,0c-0.16,5.876-0.668,11.993-0.121,17.849c0.114,1.218,1.783,1.22,1.897,0
			C83.432,98.965,82.925,92.851,82.765,86.973z"/>
		<path d="M82.566,124.285c-0.344-0.758-1.68-0.209-1.359,0.573c0.931,2.271,1.615,4.615,1.858,7.065
			c0.221,2.226-0.166,4.39-0.139,6.604c0.013,1.044,1.539,1.267,1.826,0.247C86.046,134.175,84.478,128.49,82.566,124.285z"/>
		<path d="M30.311,187.67c-5.569,2.098-10.828,5.155-16.06,7.97c-0.774,0.416-0.094,1.498,0.676,1.156
			c5.367-2.39,10.963-4.646,15.972-7.732C31.602,188.629,31.151,187.353,30.311,187.67z"/>
		<path d="M57.611,161.463c-5.118,3.18-9.449,8.219-13.8,12.354c-0.905,0.86,0.426,2.141,1.354,1.354
			c4.519-3.831,9.93-7.542,13.595-12.219C59.374,162.168,58.605,160.845,57.611,161.463z"/>
		<path d="M83.52,141.111c-4.923,0.984-9.317,5.039-12.209,8.936c-0.667,0.899,0.851,2.083,1.562,1.205
			c1.55-1.914,3.31-3.61,5.368-4.976c1.946-1.291,4.078-2.062,6.146-3.109C85.582,142.562,84.71,140.873,83.52,141.111z"/>
		<path d="M109.703,139.572c-4.591-0.384-9.285-0.014-13.883,0.149c-1.028,0.036-1.03,1.563,0,1.599
			c4.597,0.162,9.292,0.533,13.883,0.149C110.921,141.366,110.923,139.674,109.703,139.572z"/>
		<path d="M147.384,141.555c-5.92-0.506-11.915-0.118-17.849,0c-1.22,0.024-1.222,1.872,0,1.897c5.934,0.118,11.929,0.507,17.849,0
			C148.602,143.347,148.605,141.659,147.384,141.555z"/>
		<path d="M177.39,137.643c-5.334-1.641-11.476-0.525-16.55,1.491c-1.265,0.503-0.746,2.563,0.573,2.08
			c5.312-1.945,10.158-1.777,15.69-1.452C178.351,139.834,178.52,137.99,177.39,137.643z"/>
	</g>
	<path d="M30.173,138.08c-7.112,0.847-14.245,1.62-21.326,2.699c-0.718,0.109-0.557,1.351,0.173,1.278
		c7.069-0.7,14.112-1.708,21.153-2.638C31.011,139.308,31.033,137.978,30.173,138.08z"/>
	<path d="M44.708,43.58c-7.503-0.431-15.011-0.3-22.489,0.48c-0.747,0.078-0.775,1.237,0,1.19c7.501-0.45,14.976-0.601,22.489-0.368
		C45.55,44.907,45.54,43.628,44.708,43.58z"/>
</g>
<g>
</g>
<g>
</g>
<g>
</g>
<g>
</g>
<g>
</g>
<g>
</g>
<g>
</g>
<g>
</g>
<g>
</g>
<g>
</g>
<g>
</g>
<g>
</g>
<g>
</g>
<g>
</g>
<g>
</g>
</svg>
