<?xml version="1.0" encoding="iso-8859-1"?>
<!-- Generator: Adobe Illustrator 18.0.0, SVG Export Plug-In . SVG Version: 6.00 Build 0)  -->
<!DOCTYPE svg PUBLIC "-//W3C//DTD SVG 1.1//EN" "http://www.w3.org/Graphics/SVG/1.1/DTD/svg11.dtd">
<svg version="1.1" id="Capa_1" xmlns="http://www.w3.org/2000/svg" xmlns:xlink="http://www.w3.org/1999/xlink" x="0px" y="0px"
	 viewBox="0 0 267.449 267.449" style="enable-background:new 0 0 267.449 267.449;" xml:space="preserve">
<g>
	<path d="M63.293,128.252c-6.168-0.26-12.339-0.399-18.51-0.551c-0.42-0.01-0.417,0.632,0,0.651c6.17,0.283,12.337,0.58,18.51,0.756
		C63.844,129.122,63.841,128.275,63.293,128.252z"/>
	<path d="M236.458,64.968c-6.876-16.524-28.532-25.711-45.507-20.224c7.703-12.945,3.275-30.857-10.602-39.321
		C158.798-7.72,132.646,4.737,120.341,24.49c-0.041-0.104-0.043-0.218-0.146-0.304c-12.078-9.975-31.245-17.491-44.437-4.868
		c-4.859,4.65-8.075,11.888-7.576,18.66c0.708,9.635,5.53,6.991-5.061,7.627c-15.684,0.943-31.897,11.117-34.245,27.656
		c-2.062,14.525,6.696,29.125,21.179,32.138c0.075,0.016,0.137-0.001,0.208,0.004c-12.652,5.23-17.105,20.097-6.337,30.71
		c5.724,5.641,14.289,7.775,22.072,6.415c3.597-0.629,13.213-7.752,15.076-7.417c2.225,0.399,1.809,6.078,2.383,8.721
		c5.753,26.497,31.892,37.779,52.474,33.222c-0.037,4.637,0.082,9.26,0.264,13.877c-0.087,0.196-0.091,0.414,0.027,0.572
		c0.115,2.802,0.229,5.604,0.403,8.402c-0.206,0.023-0.411,0.044-0.617,0.068c-0.861,0.099-0.896,1.443,0,1.376
		c0.236-0.018,0.47-0.038,0.706-0.056c0.15,2.309,0.311,4.617,0.491,6.926c-0.444,0.207-0.324,0.855,0.071,1.001
		c0.308,3.876,0.645,7.753,1.007,11.635c0.107,1.152,1.271,2.022,2.378,1.365c6.433-3.823,14.039-10.286,21.14-12.561
		c3.486-4.019,7.196-4.196,11.128-0.53c1.388,3.164,2.785,6.324,4.188,9.48c6.928,15.623,13.942,31.209,21.17,46.695
		c-0.013,0.369-0.03,0.738-0.042,1.106c-0.047,1.397,2.063,1.373,2.157,0c0-0.003,0-0.007,0.001-0.01
		c0.704-0.374,1.214-1.237,0.793-2.17c-0.191-0.423-0.381-0.845-0.571-1.268c2.148-31.892,3.762-63.835,5.326-95.759
		c0.091-1.855-2.527-1.969-3.019-0.406c-7.545,2.942-14.94,6.257-22.332,9.568c3.085-8.94,6.869-17.496,11.638-25.701
		c3.708-0.995,7.33-2.658,10.722-5.079c9.584-6.84,18.367-23.524,10.459-34.067C232.24,106.066,244.264,83.728,236.458,64.968z
		 M176.757,178.648c-0.386,1.291,1.038,2.132,2.113,1.624c8.001-3.781,16.051-7.493,23.882-11.619
		c-1.585,29.887-3.115,59.795-4.203,89.706c-1.82-4.031-3.619-8.07-5.421-12.108c1.236,0.001,2.47,0.014,3.705-0.06
		c0.681-0.041,0.682-1.019,0-1.06c-1.412-0.084-2.823-0.07-4.237-0.068c-0.659-1.476-1.322-2.949-1.981-4.425
		c1.406,0.214,2.811,0.438,4.225,0.599c0.876,0.099,1.092-1.426,0.21-1.552c-1.703-0.243-3.414-0.41-5.125-0.587
		c-1.134-2.541-2.276-5.078-3.411-7.618c1.603,0.368,3.202,0.749,4.82,1.047c1.055,0.194,1.521-1.363,0.45-1.632
		c-1.972-0.494-3.966-0.882-5.956-1.294c-0.056-0.012-0.089,0.029-0.142,0.027c-0.756-1.693-1.514-3.386-2.273-5.077
		c0.505-0.028,1.01-0.075,1.521-0.12c0.372-0.033,0.558-0.305,0.562-0.578c1.304,0.068,2.587,0.235,3.887,0.65
		c0.878,0.281,1.214-1.049,0.376-1.363c-2.044-0.766-4.161-0.952-6.305-0.527c-0.278,0.055-0.385,0.284-0.4,0.522
		c-0.092-0.002-0.183-0.003-0.275-0.003c-1.342-2.989-2.686-5.977-4.017-8.971c1.615,0.225,3.233,0.427,4.85,0.63
		c1.09,0.137,1.11-1.622,0-1.729c-1.856-0.179-3.712-0.384-5.572-0.515c-1.186-2.672-2.404-5.33-3.584-8.004
		c3.896,0.307,7.785,0.729,11.635,1.405c0.733,0.129,1.056-0.982,0.311-1.13c-4.108-0.813-8.189-1.184-12.352-1.188
		c-0.363-0.824-0.735-1.644-1.098-2.469c-0.35-0.796-1.53-0.988-2.212-0.58c-6.509,3.885-23.804,18.931-30.13,13.773
		c-0.896-0.73-1.54-2.62-2.019-5.148c3.617-0.148,7.23-0.716,10.794-1.286c0.578-0.092,0.444-1.055-0.138-1.023
		c-3.625,0.205-7.291,0.458-10.875,1.095c-0.31-1.985-0.521-4.324-0.684-6.782c4.077-0.308,8.148-0.635,12.205-1.17
		c0.86-0.113,0.919-1.447,0-1.395c-4.116,0.236-8.206,0.684-12.3,1.149c-0.147-2.65-0.229-5.425-0.281-8.14
		c4.845-0.31,9.711-0.37,14.564-0.28c0.692,0.013,0.669-1,0-1.06c-4.893-0.438-9.712-0.306-14.587,0.209
		c-0.046-2.773-0.062-5.444-0.081-7.8c4.317,0.426,8.578,0.177,12.844-0.609c0.62-0.114,0.486-1.196-0.151-1.114
		c-4.225,0.545-8.452,0.697-12.705,0.638c-0.018-1.901-0.04-3.609-0.089-4.869c0.102-0.026,0.201-0.061,0.303-0.088
		c5.244,1.042,11.704-0.507,16.616-1.827c0.811-0.218,0.469-1.442-0.346-1.255c-3.281,0.751-6.616,1.311-9.972,1.589
		c-0.673,0.056-1.351,0.08-2.032,0.096c4.634-1.828,8.767-4.613,12.111-8.285c3.621-0.353,7.237-0.692,10.841-1.195
		c0.7-0.098,0.541-1.301-0.168-1.242c-3.195,0.269-6.372,0.672-9.552,1.074c1.744-2.158,3.216-4.604,4.376-7.323
		c0.903,0.023,1.806,0.028,2.708,0.022c-0.014,0.225,0.081,0.453,0.338,0.488c2.75,0.376,5.563,0.381,8.214-0.526
		c0.606-0.207,0.359-1.06-0.262-0.95c-1.825,0.323-3.591,0.563-5.391,0.595c0.132-0.314,0.003-0.733-0.453-0.759
		c-1.567-0.091-3.129-0.078-4.693-0.043c0.651-1.709,1.158-3.539,1.547-5.46c4.36-0.131,8.709-0.302,13.058-0.661
		c0.328-0.027,0.492-0.258,0.553-0.509c4.399,1.22,8.983,1.563,13.512,0.921C183.592,160.087,179.599,169.14,176.757,178.648z
		 M161.527,150.453c0.343-2.053,0.546-4.212,0.551-6.512c3.284,2.613,6.919,4.565,10.718,5.885
		C169.033,149.946,165.282,150.174,161.527,150.453z M211.313,109.233c-0.329-0.296-0.611-0.612-0.975-0.893
		c-1.06-0.821-2.985,0.239-2.059,1.588c0.035,0.051,0.06,0.104,0.095,0.156c-1.031,0.647-0.31,2.532,1.128,2.308
		c0.079-0.012,0.153-0.038,0.233-0.051c6.247,11.862,0.112,25.24-11.331,32.094c-11.851,7.098-26.185,4.816-36.434-3.71
		c-0.062-0.962-0.098-1.907-0.217-2.907c-0.254-2.126-3.615-2.177-3.384,0c0.043,0.406,0.025,0.798,0.055,1.201
		c-0.412,0.405-0.559,1.079-0.034,1.62c0.036,0.037,0.076,0.069,0.112,0.107c0.616,22.927-20.248,40.389-43.254,34
		c-5.333-1.481-9.874-3.976-13.708-7.168c5.351-0.046,10.638,0.116,15.963,0.737c0.847,0.099,0.828-1.213,0-1.32
		c-5.473-0.71-11.017-0.984-16.527-0.577c-0.218,0.016-0.351,0.134-0.441,0.28c-2.959-2.651-5.484-5.717-7.537-9.113
		c5.864,1.795,12.403,2.419,18.414,3.312c0.658,0.098,0.962-0.887,0.282-1.022c-6.197-1.23-12.854-2.949-19.21-3.14
		c-1.96-3.416-3.528-7.09-4.609-10.963c4.524,0.728,9.045,1.432,13.584,2.058c0.799,0.11,1.165-1.096,0.341-1.237
		c-4.608-0.787-9.224-1.492-13.849-2.173c-0.169-0.025-0.301,0.038-0.426,0.105c-0.796-3.153-1.315-6.402-1.55-9.683
		c4.78,0.536,9.558,1.068,14.353,1.465c0.662,0.055,0.642-0.95,0-1.023c-4.8-0.54-9.61-0.943-14.423-1.342
		c-0.079-1.418-0.123-2.839-0.099-4.261c0.025-1.487-1.898-2.268-2.932-1.215c-7.966,9.817-18.789,12.568-32.47,8.252
		c-0.111-0.107-0.198-0.211-0.307-0.318c5.13,0.199,10.21,0.016,15.301-0.698c0.503-0.07,0.39-0.951-0.121-0.895
		c-5.277,0.585-10.559,0.842-15.866,0.643c-0.074-0.003-0.111,0.043-0.167,0.066c-6.808-7.001-9.404-13.286-7.734-18.847
		c5.5,0.052,10.994,0.09,16.495,0.009c0.754-0.011,0.755-1.16,0-1.172c-5.371-0.079-10.735-0.041-16.104,0.008
		c1.568-3.788,5.162-7.231,10.812-10.326c0.381-0.132,0.226-0.727-0.168-0.61c-0.421,0.126-0.808,0.294-1.213,0.44
		c0.216-0.225,0.317-0.521,0.357-0.825c4.745,0.699,9.487,1.316,14.263,1.788c0.629,0.062,0.783-1.018,0.151-1.114
		c-4.967-0.752-9.936-1.351-14.933-1.857c-0.122-0.087-0.218-0.191-0.387-0.245c-5.608-1.812-10.076-5.19-13.229-9.4
		c8.126,1.011,16.221,1.317,24.418,0.917c0.915-0.045,0.925-1.462,0-1.432c-8.48,0.277-16.945-0.039-25.389-0.848
		c-2.123-3.253-3.516-6.919-3.997-10.766c6.705,0.638,13.408,1.278,20.125,1.783c0.721,0.054,0.704-1.045,0-1.116
		c-6.735-0.678-13.48-1.22-20.226-1.764c-0.242-2.993,0.022-6.062,0.893-9.086c9.542,0.182,19.067,0.09,28.595-0.558
		c0.864-0.059,0.879-1.395,0-1.357c-9.399,0.402-18.8,0.701-28.208,0.741c0.549-1.614,1.232-3.213,2.128-4.77
		c1.221-2.122,2.676-3.938,4.228-5.613c4.633-0.318,9.264-0.469,13.916-0.237c0.827,0.041,0.82-1.233,0-1.283
		c-4.178-0.253-8.332-0.229-12.481,0.101c8.335-7.866,20.285-10.273,32.172-8.397c1.253,0.198,2.906-1.164,1.91-2.484
		c-1.311-1.737-2.255-3.528-2.892-5.334c5.437,0.24,10.894,0.289,16.331,0.125c0.765-0.023,0.767-1.167,0-1.19
		c-5.522-0.167-11.068-0.118-16.59,0.132c-0.864-2.962-0.89-5.942-0.235-8.765c4.509-0.113,9.023-0.247,13.516-0.648
		c0.984-0.088,1.022-1.573,0-1.562c-4.359,0.046-8.714,0.346-13.063,0.67c1.323-4.051,4.069-7.672,7.726-10.338
		c5.085,0.08,10.179,0.118,15.256-0.078c0.813-0.031,0.815-1.233,0-1.264c-4.336-0.167-8.684-0.156-13.029-0.105
		c2.975-1.684,6.402-2.781,10.105-3.032c9.761-0.662,18.789,4.261,26.407,9.712c0.151,0.108,0.308,0.1,0.461,0.088
		c-0.826,1.489,1.377,3.32,2.494,1.879c11.327-14.605,26.686-27.575,46.634-22.849c19.694,4.666,29.359,27.031,16.965,42.374
		c-0.874,0.482-1.746,0.968-2.574,1.546c-0.572,0.399-0.705,1.132-0.532,1.733c-0.204,0.184-0.364,0.385-0.576,0.566
		c-1.062,0.907,0.362,2.793,1.51,1.957c1.064-0.775,2.044-1.604,2.951-2.475c16.395-5.569,36.089-3.322,45.309,13.606
		C241.477,81.687,229.634,103.869,211.313,109.233z"/>
</g>
<g>
</g>
<g>
</g>
<g>
</g>
<g>
</g>
<g>
</g>
<g>
</g>
<g>
</g>
<g>
</g>
<g>
</g>
<g>
</g>
<g>
</g>
<g>
</g>
<g>
</g>
<g>
</g>
<g>
</g>
</svg>
