<?xml version="1.0" encoding="iso-8859-1"?>
<!-- Generator: Adobe Illustrator 18.0.0, SVG Export Plug-In . SVG Version: 6.00 Build 0)  -->
<!DOCTYPE svg PUBLIC "-//W3C//DTD SVG 1.1//EN" "http://www.w3.org/Graphics/SVG/1.1/DTD/svg11.dtd">
<svg version="1.1" id="Capa_1" xmlns="http://www.w3.org/2000/svg" xmlns:xlink="http://www.w3.org/1999/xlink" x="0px" y="0px"
	 viewBox="0 0 196.371 196.371" style="enable-background:new 0 0 196.371 196.371;" xml:space="preserve">
<g>
	<path d="M171.176,10.659c0.033-0.083,0.064-0.165,0.097-0.248c0.683-1.744-2.177-2.933-3.025-1.275
		c-0.097,0.189-0.183,0.386-0.279,0.575c-13.836-3.593-27.86-6.503-41.803-9.647c-1.246-0.281-2.342,0.377-2.761,1.568
		c-15.014,42.68-28.158,85.925-39.55,129.703h-0.013c-2.915-8.132-5.83-16.264-8.748-24.395c-2.356-6.566-4.701-21.209-9.957-26.398
		c-7.993-7.894-26.561-1.574-36.981-0.597c-0.823,0.077-1.311,0.637-1.481,1.27c-0.118-0.311-0.23-0.625-0.348-0.936
		c-0.437-1.152-2.268-0.7-1.882,0.519c0.601,1.901,1.214,3.811,1.816,5.715c-0.375,0.244-0.352,0.965,0.165,1.123
		c0.069,0.021,0.141,0.037,0.21,0.058c10.235,32.332,20.73,64.893,32.738,96.562c7.762,20.471,29.949,9.314,48.14,7.033
		c0.873-0.11,1.7-0.544,1.932-1.471c15.228-60.729,37.595-117.57,60.348-175.628C171.839,14.327,172.765,11.669,171.176,10.659z
		 M111.98,163.982c-1.382,5.091-1.784,13.162-4.636,17.676c-5.25,8.308-12.439,7.238-20.722,8.299
		c-7.934,1.016-15.972,4.209-22.278-3.172c-0.548-0.641-1.071-1.614-1.583-2.701c5.932,1.064,11.922,1.953,17.893,2.751
		c0.638,0.085,0.793-1.025,0.153-1.132c-6.15-1.028-12.35-1.974-18.543-2.712c-1.041-2.496-1.992-5.64-2.844-8.666
		c6.169,0.863,12.393,1.512,18.595,2.055c0.918,0.08,0.881-1.302,0-1.413c-6.294-0.795-12.636-1.502-18.965-1.958
		c-0.841-3.042-1.576-5.847-2.178-7.561c-0.464-1.322-0.927-2.644-1.391-3.966c5.078,0.526,10.17,1.188,15.267,1.445
		c0.672,0.034,0.635-0.944,0-1.023c-5.152-0.637-10.371-0.859-15.549-1.228c-1.384-3.946-2.769-7.893-4.153-11.839
		c3.908,0.205,7.764,0.719,11.589,1.623c0.755,0.178,1.075-0.965,0.321-1.165c-4.055-1.078-8.18-1.601-12.358-1.732
		c-1.228-3.5-2.479-6.991-3.71-10.489c5.075,0.818,10.147,1.682,15.265,2.155c0.717,0.066,0.876-1.114,0.17-1.26
		c-5.287-1.098-10.658-1.762-16.006-2.507c-1.401-3.975-2.828-7.942-4.237-11.914c5.146,0.425,10.29,0.861,15.451,1.07
		c0.793,0.032,0.753-1.121,0-1.209c-5.318-0.615-10.654-0.99-15.992-1.385c-1.407-3.96-2.834-7.912-4.254-11.867
		c4.005,0.826,8.25,1.149,12.313,1.432c0.886,0.062,1.11-1.445,0.213-1.57c-4.183-0.585-8.549-1.204-12.774-1.186
		c-0.082,0.001-0.13,0.055-0.198,0.082c-1.181-3.285-2.412-6.552-3.606-9.833c5.254,0.163,10.475,0.666,15.705,1.197
		c0.831,0.084,1.017-1.296,0.198-1.461c-5.454-1.099-10.957-1.406-16.509-1.389c-1.094-2.999-2.199-5.995-3.298-8.993
		c5.522,1.487,11.254,2.53,16.849,3.493c0.937,0.161,1.357-1.213,0.4-1.452c-5.85-1.462-11.876-2.894-17.877-3.754
		c-0.456-1.235-0.895-2.476-1.36-3.708c0.224,0.118,0.483,0.199,0.812,0.182c18.541-0.957,33.053-2.429,40.32,17.963
		c4.523,12.692,9.045,25.384,13.576,38.072c0.688,1.927,3.638,2.212,4.205,0c0.576-2.243,1.185-4.477,1.769-6.717
		c2.176,0.003,4.352,0.022,6.529-0.011c0.742-0.011,0.743-1.141,0-1.153c-2.074-0.031-4.147-0.012-6.22-0.01
		c0.901-3.447,1.84-6.884,2.761-10.325c3.135,0.027,6.26,0.17,9.399,0.287c0.563,0.021,0.714-0.92,0.136-1.004
		c-3.054-0.445-6.141-0.494-9.224-0.442c0.995-3.71,2.077-7.395,3.096-11.098c3.304,0.189,6.67,0.266,9.969,0.134
		c0.981-0.039,0.983-1.485,0-1.525c-3.181-0.127-6.423-0.055-9.614,0.119c1.072-3.885,2.205-7.752,3.298-11.63
		c4.3,0.665,8.611,1.308,12.941,1.654c0.816,0.065,1.013-1.299,0.195-1.442c-4.212-0.741-8.474-1.199-12.734-1.63
		c1.387-4.902,2.814-9.793,4.237-14.685c4.962,0.274,9.927,0.611,14.898,0.589c0.838-0.004,0.811-1.212,0-1.283
		c-4.825-0.423-9.672-0.507-14.513-0.64c1.147-3.931,2.379-7.838,3.557-11.76c4.084,0.306,8.187,0.572,12.277,0.538
		c0.882-0.007,0.864-1.296,0-1.357c-3.971-0.28-7.973-0.276-11.96-0.229c1.083-3.596,2.154-7.196,3.261-10.784
		c5.31,0.395,10.643,0.875,15.957,0.867c1.113-0.002,1.058-1.575,0-1.692c-5.115-0.564-10.296-0.677-15.45-0.85
		c0.055-0.174,0.103-0.349,0.158-0.523c0.948-2.987,1.926-7.244,3.019-11.945c2.557,0.418,5.111,0.847,7.684,1.154
		c0.713,0.085,0.881-1.132,0.171-1.26c-2.512-0.451-5.04-0.78-7.568-1.123c2.231-9.557,4.973-20.637,8.937-26.895
		c4.316,0.499,8.539,1.4,12.724,2.624c1.166,0.341,1.643-1.439,0.499-1.811c-3.951-1.285-7.976-2.025-12.078-2.363
		c0.29-0.366,0.565-0.792,0.868-1.105c7.543-7.79,29.436,0.458,40.941,3.496C142.512,60.821,125.806,113.048,111.98,163.982z"/>
	<path d="M132.902,25.346c-4.968-0.418-9.826,0.013-14.731,0.845c-0.953,0.162-0.532,1.561,0.395,1.434
		c4.751-0.649,9.546-0.791,14.336-0.866C133.824,26.745,133.798,25.422,132.902,25.346z"/>
</g>
<g>
</g>
<g>
</g>
<g>
</g>
<g>
</g>
<g>
</g>
<g>
</g>
<g>
</g>
<g>
</g>
<g>
</g>
<g>
</g>
<g>
</g>
<g>
</g>
<g>
</g>
<g>
</g>
<g>
</g>
</svg>
